<svg xmlns="http://www.w3.org/2000/svg" xmlns:xlink="http://www.w3.org/1999/xlink" width="500" zoomAndPan="magnify" viewBox="0 0 375 374.999991" height="500" preserveAspectRatio="xMidYMid meet" version="1.2"><defs><clipPath id="64058b29b9"><path d="M 38.300781 38.300781 L 337.550781 38.300781 L 337.550781 337.550781 L 38.300781 337.550781 Z M 38.300781 38.300781 "/></clipPath></defs><g id="2ffe948f9e"><g clip-rule="nonzero" clip-path="url(#64058b29b9)"><path style=" stroke:none;fill-rule:nonzero;fill:#ffffff;fill-opacity:1;" d="M 187.871094 38.289062 C 105.257812 38.289062 38.289062 105.257812 38.289062 187.871094 C 38.289062 270.484375 105.257812 337.453125 187.871094 337.453125 C 270.484375 337.453125 337.453125 270.484375 337.453125 187.871094 C 337.453125 105.257812 270.484375 38.289062 187.871094 38.289062 Z M 187.871094 80.171875 C 217.617188 80.171875 241.722656 104.28125 241.722656 134.023438 C 241.722656 163.769531 217.617188 187.878906 187.871094 187.878906 C 158.125 187.878906 134.019531 163.765625 134.019531 134.023438 C 134.019531 104.285156 158.125 80.171875 187.871094 80.171875 Z M 187.871094 301.5625 C 149.636719 301.5625 115.898438 282.632812 95.289062 253.695312 C 115.898438 224.761719 149.636719 205.828125 187.871094 205.828125 C 226.105469 205.828125 259.84375 224.761719 280.453125 253.695312 C 259.84375 282.632812 226.105469 301.5625 187.871094 301.5625 Z M 187.871094 301.5625 "/></g></g></svg>