<svg xmlns="http://www.w3.org/2000/svg" xmlns:xlink="http://www.w3.org/1999/xlink" width="500" zoomAndPan="magnify" viewBox="0 0 375 374.999991" height="500" preserveAspectRatio="xMidYMid meet" version="1.2"><defs><clipPath id="e5ef6e7cf2"><path d="M 46.902344 46.902344 L 328.152344 46.902344 L 328.152344 328.152344 L 46.902344 328.152344 Z M 46.902344 46.902344 "/></clipPath><clipPath id="d83f19024f"><path d="M 206.363281 26.640625 L 305.488281 26.640625 L 305.488281 125.761719 L 206.363281 125.761719 Z M 206.363281 26.640625 "/></clipPath><clipPath id="a86bff6e66"><path d="M 255.925781 26.640625 C 228.554688 26.640625 206.363281 48.828125 206.363281 76.199219 C 206.363281 103.574219 228.554688 125.761719 255.925781 125.761719 C 283.296875 125.761719 305.488281 103.574219 305.488281 76.199219 C 305.488281 48.828125 283.296875 26.640625 255.925781 26.640625 Z M 255.925781 26.640625 "/></clipPath><clipPath id="bb3799a679"><path d="M 210.929688 31.203125 L 300.929688 31.203125 L 300.929688 121.203125 L 210.929688 121.203125 Z M 210.929688 31.203125 "/></clipPath></defs><g id="404c6c8fa4"><g clip-rule="nonzero" clip-path="url(#e5ef6e7cf2)"><path style=" stroke:none;fill-rule:nonzero;fill:#f16c6b;fill-opacity:1;" d="M 328.152344 187.527344 C 328.152344 189.828125 328.097656 192.128906 327.984375 194.429688 C 327.871094 196.726562 327.703125 199.023438 327.476562 201.3125 C 327.25 203.601562 326.96875 205.886719 326.632812 208.164062 C 326.292969 210.4375 325.902344 212.707031 325.453125 214.964844 C 325.003906 217.21875 324.5 219.464844 323.9375 221.699219 C 323.378906 223.929688 322.765625 226.148438 322.097656 228.351562 C 321.429688 230.550781 320.707031 232.738281 319.933594 234.902344 C 319.15625 237.070312 318.328125 239.21875 317.449219 241.34375 C 316.570312 243.46875 315.636719 245.574219 314.652344 247.652344 C 313.667969 249.734375 312.632812 251.789062 311.546875 253.820312 C 310.464844 255.847656 309.328125 257.851562 308.148438 259.824219 C 306.964844 261.796875 305.734375 263.742188 304.453125 265.65625 C 303.175781 267.570312 301.851562 269.449219 300.480469 271.296875 C 299.109375 273.148438 297.691406 274.960938 296.234375 276.738281 C 294.773438 278.519531 293.269531 280.261719 291.726562 281.964844 C 290.179688 283.671875 288.59375 285.339844 286.964844 286.964844 C 285.339844 288.59375 283.671875 290.179688 281.964844 291.726562 C 280.261719 293.269531 278.519531 294.773438 276.738281 296.234375 C 274.960938 297.691406 273.148438 299.109375 271.296875 300.480469 C 269.449219 301.851562 267.570312 303.175781 265.65625 304.453125 C 263.742188 305.734375 261.796875 306.964844 259.824219 308.148438 C 257.851562 309.328125 255.847656 310.464844 253.820312 311.546875 C 251.789062 312.632812 249.734375 313.667969 247.652344 314.652344 C 245.574219 315.636719 243.46875 316.570312 241.34375 317.449219 C 239.21875 318.328125 237.070312 319.15625 234.902344 319.933594 C 232.738281 320.707031 230.550781 321.429688 228.351562 322.097656 C 226.148438 322.765625 223.929688 323.378906 221.699219 323.9375 C 219.464844 324.5 217.21875 325.003906 214.964844 325.453125 C 212.707031 325.902344 210.4375 326.292969 208.164062 326.632812 C 205.886719 326.96875 203.601562 327.25 201.3125 327.476562 C 199.023438 327.703125 196.726562 327.871094 194.429688 327.984375 C 192.128906 328.097656 189.828125 328.152344 187.527344 328.152344 C 185.226562 328.152344 182.925781 328.097656 180.628906 327.984375 C 178.328125 327.871094 176.035156 327.703125 173.746094 327.476562 C 171.453125 327.25 169.171875 326.96875 166.894531 326.632812 C 164.617188 326.292969 162.351562 325.902344 160.09375 325.453125 C 157.835938 325.003906 155.59375 324.5 153.359375 323.9375 C 151.128906 323.378906 148.910156 322.765625 146.707031 322.097656 C 144.503906 321.429688 142.320312 320.707031 140.152344 319.933594 C 137.988281 319.15625 135.839844 318.328125 133.714844 317.449219 C 131.585938 316.570312 129.484375 315.636719 127.402344 314.652344 C 125.324219 313.667969 123.269531 312.632812 121.238281 311.546875 C 119.207031 310.464844 117.207031 309.328125 115.234375 308.148438 C 113.257812 306.964844 111.316406 305.734375 109.402344 304.453125 C 107.488281 303.175781 105.605469 301.851562 103.757812 300.480469 C 101.910156 299.109375 100.097656 297.691406 98.316406 296.234375 C 96.539062 294.773438 94.796875 293.269531 93.089844 291.726562 C 91.386719 290.179688 89.71875 288.59375 88.089844 286.964844 C 86.464844 285.339844 84.878906 283.671875 83.332031 281.964844 C 81.785156 280.261719 80.285156 278.519531 78.824219 276.738281 C 77.363281 274.960938 75.949219 273.148438 74.578125 271.296875 C 73.207031 269.449219 71.882812 267.570312 70.601562 265.65625 C 69.324219 263.742188 68.09375 261.796875 66.910156 259.824219 C 65.726562 257.851562 64.59375 255.847656 63.507812 253.820312 C 62.421875 251.789062 61.390625 249.734375 60.40625 247.652344 C 59.421875 245.574219 58.488281 243.46875 57.609375 241.34375 C 56.726562 239.21875 55.898438 237.070312 55.125 234.902344 C 54.347656 232.738281 53.625 230.550781 52.957031 228.351562 C 52.289062 226.148438 51.675781 223.929688 51.117188 221.699219 C 50.558594 219.464844 50.054688 217.21875 49.605469 214.964844 C 49.15625 212.707031 48.761719 210.4375 48.425781 208.164062 C 48.089844 205.886719 47.804688 203.601562 47.582031 201.3125 C 47.355469 199.023438 47.1875 196.726562 47.074219 194.429688 C 46.960938 192.128906 46.902344 189.828125 46.902344 187.527344 C 46.902344 185.226562 46.960938 182.925781 47.074219 180.628906 C 47.1875 178.328125 47.355469 176.035156 47.582031 173.746094 C 47.804688 171.453125 48.089844 169.171875 48.425781 166.894531 C 48.761719 164.617188 49.15625 162.351562 49.605469 160.09375 C 50.054688 157.835938 50.558594 155.59375 51.117188 153.359375 C 51.675781 151.128906 52.289062 148.910156 52.957031 146.707031 C 53.625 144.503906 54.347656 142.320312 55.125 140.152344 C 55.898438 137.988281 56.726562 135.839844 57.609375 133.714844 C 58.488281 131.585938 59.421875 129.484375 60.40625 127.402344 C 61.390625 125.324219 62.421875 123.269531 63.507812 121.238281 C 64.59375 119.207031 65.726562 117.207031 66.910156 115.234375 C 68.09375 113.257812 69.324219 111.316406 70.601562 109.402344 C 71.882812 107.488281 73.207031 105.605469 74.578125 103.757812 C 75.949219 101.910156 77.363281 100.097656 78.824219 98.316406 C 80.285156 96.539062 81.785156 94.796875 83.332031 93.089844 C 84.878906 91.386719 86.464844 89.71875 88.089844 88.089844 C 89.71875 86.464844 91.386719 84.878906 93.089844 83.332031 C 94.796875 81.785156 96.539062 80.285156 98.316406 78.824219 C 100.097656 77.363281 101.910156 75.949219 103.757812 74.578125 C 105.605469 73.207031 107.488281 71.882812 109.402344 70.601562 C 111.316406 69.324219 113.257812 68.09375 115.234375 66.910156 C 117.207031 65.726562 119.207031 64.59375 121.238281 63.507812 C 123.269531 62.421875 125.324219 61.390625 127.402344 60.40625 C 129.484375 59.421875 131.585938 58.488281 133.714844 57.609375 C 135.839844 56.726562 137.988281 55.898438 140.152344 55.125 C 142.320312 54.347656 144.503906 53.625 146.707031 52.957031 C 148.910156 52.289062 151.128906 51.675781 153.359375 51.117188 C 155.59375 50.558594 157.835938 50.054688 160.09375 49.605469 C 162.351562 49.15625 164.617188 48.761719 166.894531 48.425781 C 169.171875 48.089844 171.453125 47.804688 173.746094 47.582031 C 176.035156 47.355469 178.328125 47.1875 180.628906 47.074219 C 182.925781 46.960938 185.226562 46.902344 187.527344 46.902344 C 189.828125 46.902344 192.128906 46.960938 194.429688 47.074219 C 196.726562 47.1875 199.023438 47.355469 201.3125 47.582031 C 203.601562 47.804688 205.886719 48.089844 208.164062 48.425781 C 210.4375 48.761719 212.707031 49.15625 214.964844 49.605469 C 217.21875 50.054688 219.464844 50.558594 221.699219 51.117188 C 223.929688 51.675781 226.148438 52.289062 228.351562 52.957031 C 230.550781 53.625 232.738281 54.347656 234.902344 55.125 C 237.070312 55.898438 239.21875 56.726562 241.34375 57.609375 C 243.46875 58.488281 245.574219 59.421875 247.652344 60.40625 C 249.734375 61.390625 251.789062 62.421875 253.820312 63.507812 C 255.847656 64.59375 257.851562 65.726562 259.824219 66.910156 C 261.796875 68.09375 263.742188 69.324219 265.65625 70.601562 C 267.570312 71.882812 269.449219 73.207031 271.296875 74.578125 C 273.148438 75.949219 274.960938 77.363281 276.738281 78.824219 C 278.519531 80.285156 280.261719 81.785156 281.964844 83.332031 C 283.671875 84.878906 285.339844 86.464844 286.964844 88.089844 C 288.59375 89.71875 290.179688 91.386719 291.726562 93.089844 C 293.269531 94.796875 294.773438 96.539062 296.234375 98.316406 C 297.691406 100.097656 299.109375 101.910156 300.480469 103.757812 C 301.851562 105.605469 303.175781 107.488281 304.453125 109.402344 C 305.734375 111.316406 306.964844 113.257812 308.148438 115.234375 C 309.328125 117.207031 310.464844 119.207031 311.546875 121.238281 C 312.632812 123.269531 313.667969 125.324219 314.652344 127.402344 C 315.636719 129.484375 316.570312 131.585938 317.449219 133.714844 C 318.328125 135.839844 319.15625 137.988281 319.933594 140.152344 C 320.707031 142.320312 321.429688 144.503906 322.097656 146.707031 C 322.765625 148.910156 323.378906 151.128906 323.9375 153.359375 C 324.5 155.59375 325.003906 157.835938 325.453125 160.09375 C 325.902344 162.351562 326.292969 164.617188 326.632812 166.894531 C 326.96875 169.171875 327.25 171.453125 327.476562 173.746094 C 327.703125 176.035156 327.871094 178.328125 327.984375 180.628906 C 328.097656 182.925781 328.152344 185.226562 328.152344 187.527344 Z M 328.152344 187.527344 "/></g><path style=" stroke:none;fill-rule:nonzero;fill:#ffffff;fill-opacity:1;" d="M 187.527344 117.363281 C 169.171875 117.363281 154.371094 132.167969 154.371094 150.523438 C 154.371094 168.878906 169.171875 183.679688 187.527344 183.679688 C 205.882812 183.679688 220.6875 168.878906 220.6875 150.523438 C 220.6875 132.167969 205.882812 117.363281 187.527344 117.363281 Z M 187.527344 117.363281 "/><path style=" stroke:none;fill-rule:nonzero;fill:#ffffff;fill-opacity:1;" d="M 236.96875 201.441406 C 228.382812 192.859375 215.949219 187.824219 203.21875 187.824219 L 171.835938 187.824219 C 159.109375 187.824219 146.671875 192.859375 138.085938 201.441406 C 124.46875 214.765625 117.066406 232.824219 117.066406 252.066406 C 117.066406 255.324219 119.734375 257.988281 122.988281 257.988281 L 251.773438 257.988281 C 255.027344 257.988281 257.691406 255.324219 257.691406 252.066406 C 257.988281 232.824219 250.292969 214.765625 236.96875 201.441406 Z M 236.96875 201.441406 "/><g clip-rule="nonzero" clip-path="url(#d83f19024f)"><g clip-rule="nonzero" clip-path="url(#a86bff6e66)"><path style=" stroke:none;fill-rule:nonzero;fill:#ffffff;fill-opacity:1;" d="M 206.363281 26.640625 L 305.488281 26.640625 L 305.488281 125.761719 L 206.363281 125.761719 Z M 206.363281 26.640625 "/></g></g><g clip-rule="nonzero" clip-path="url(#bb3799a679)"><path style=" stroke:none;fill-rule:nonzero;fill:#f16c6b;fill-opacity:1;" d="M 255.925781 31.203125 C 231.105469 31.203125 210.929688 51.378906 210.929688 76.199219 C 210.929688 101.019531 231.105469 121.191406 255.925781 121.191406 C 280.742188 121.191406 300.917969 101.019531 300.917969 76.199219 C 300.917969 51.378906 280.742188 31.203125 255.925781 31.203125 Z M 281.207031 80.554688 L 260.277344 80.554688 L 260.277344 101.484375 C 260.277344 103.863281 258.335938 105.835938 255.925781 105.835938 C 253.515625 105.835938 251.570312 103.863281 251.570312 101.484375 L 251.570312 80.554688 L 230.640625 80.554688 C 228.261719 80.554688 226.285156 78.609375 226.285156 76.199219 C 226.285156 73.789062 228.261719 71.84375 230.640625 71.84375 L 251.570312 71.84375 L 251.570312 50.914062 C 251.570312 48.535156 253.515625 46.5625 255.925781 46.5625 C 258.335938 46.5625 260.277344 48.535156 260.277344 50.914062 L 260.277344 71.84375 L 281.207031 71.84375 C 283.589844 71.84375 285.5625 73.789062 285.5625 76.199219 C 285.5625 78.609375 283.589844 80.554688 281.207031 80.554688 Z M 281.207031 80.554688 "/></g></g></svg>