<svg xmlns="http://www.w3.org/2000/svg" xmlns:xlink="http://www.w3.org/1999/xlink" width="500" zoomAndPan="magnify" viewBox="0 0 375 374.999991" height="500" preserveAspectRatio="xMidYMid meet" version="1.2"><defs><clipPath id="61dd7bc43e"><path d="M 44.046875 44.046875 L 331 44.046875 L 331 331 L 44.046875 331 Z M 44.046875 44.046875 "/></clipPath></defs><g id="6458279d50"><g clip-rule="nonzero" clip-path="url(#61dd7bc43e)"><path style=" stroke:none;fill-rule:nonzero;fill:#ffffff;fill-opacity:1;" d="M 187.507812 44.046875 C 108.273438 44.046875 44.046875 108.273438 44.046875 187.507812 C 44.046875 266.738281 108.273438 330.964844 187.507812 330.964844 C 266.738281 330.964844 330.964844 266.738281 330.964844 187.507812 C 330.964844 108.273438 266.738281 44.046875 187.507812 44.046875 Z M 229.871094 245.753906 C 229.871094 251.976562 224.816406 257.023438 218.585938 257.023438 L 123.792969 257.023438 C 117.558594 257.023438 112.503906 251.980469 112.503906 245.753906 L 112.503906 129.25 C 112.503906 123.03125 117.558594 117.984375 123.792969 117.984375 L 218.597656 117.984375 C 224.828125 117.984375 229.878906 123.03125 229.878906 129.25 L 229.878906 155.042969 L 214.847656 155.042969 L 214.847656 138.363281 C 214.847656 135.375 212.421875 132.949219 209.433594 132.949219 L 132.945312 132.949219 C 129.953125 132.949219 127.53125 135.375 127.53125 138.363281 L 127.53125 236.601562 C 127.53125 239.589844 129.953125 242.015625 132.945312 242.015625 L 209.433594 242.015625 C 212.421875 242.015625 214.847656 239.589844 214.847656 236.601562 L 214.847656 219.921875 L 229.878906 219.921875 L 229.878906 245.761719 Z M 297.46875 191.136719 L 245.984375 230.136719 C 245.1875 230.734375 244.214844 231.0625 243.214844 231.0625 C 240.683594 231.0625 238.632812 229.007812 238.632812 226.476562 L 238.632812 207.835938 L 165.121094 207.835938 C 162.539062 207.835938 160.445312 205.519531 160.445312 202.664062 L 160.445312 172.257812 C 160.445312 169.398438 162.539062 167.082031 165.121094 167.082031 L 238.632812 167.082031 L 238.632812 148.492188 C 238.632812 147.496094 238.957031 146.523438 239.558594 145.730469 C 240.324219 144.71875 241.421875 144.117188 242.582031 143.957031 C 243.742188 143.796875 244.964844 144.078125 245.976562 144.84375 L 297.460938 183.835938 C 297.800781 184.085938 298.097656 184.390625 298.347656 184.722656 C 299.875 186.738281 299.480469 189.617188 297.460938 191.140625 Z M 297.46875 191.136719 "/></g></g></svg>