<svg xmlns="http://www.w3.org/2000/svg" xmlns:xlink="http://www.w3.org/1999/xlink" width="500" zoomAndPan="magnify" viewBox="0 0 375 374.999991" height="500" preserveAspectRatio="xMidYMid meet" version="1.2"><defs><clipPath id="4653238797"><path d="M 55.101562 106 L 319.851562 106 L 319.851562 302.5625 L 55.101562 302.5625 Z M 55.101562 106 "/></clipPath><clipPath id="5399a3619d"><path d="M 68 72.3125 L 307 72.3125 L 307 90 L 68 90 Z M 68 72.3125 "/></clipPath><clipPath id="cc81247a37"><path d="M 55.101562 89 L 319.851562 89 L 319.851562 107 L 55.101562 107 Z M 55.101562 89 "/></clipPath><clipPath id="76a0e0042a"><path d="M 172 72.3125 L 203 72.3125 L 203 107 L 172 107 Z M 172 72.3125 "/></clipPath><clipPath id="1365e82e41"><path d="M 177 72.3125 L 198 72.3125 L 198 90 L 177 90 Z M 177 72.3125 "/></clipPath></defs><g id="23b4284406"><g clip-rule="nonzero" clip-path="url(#4653238797)"><path style=" stroke:none;fill-rule:nonzero;fill:#e6a45a;fill-opacity:1;" d="M 319.726562 302.558594 L 55.226562 302.558594 L 55.226562 106.496094 L 319.726562 106.496094 L 319.726562 302.558594 "/></g><g clip-rule="nonzero" clip-path="url(#5399a3619d)"><path style=" stroke:none;fill-rule:nonzero;fill:#deaf7a;fill-opacity:1;" d="M 82.214844 72.320312 L 292.734375 72.320312 L 306.230469 89.410156 L 68.722656 89.410156 L 82.214844 72.320312 "/></g><g clip-rule="nonzero" clip-path="url(#cc81247a37)"><path style=" stroke:none;fill-rule:nonzero;fill:#ecc292;fill-opacity:1;" d="M 319.726562 106.496094 L 55.226562 106.496094 L 68.722656 89.410156 L 306.230469 89.410156 L 319.726562 106.496094 "/></g><path style=" stroke:none;fill-rule:nonzero;fill:#999999;fill-opacity:1;" d="M 202.28125 169.832031 L 172.671875 169.832031 L 172.671875 106.496094 L 202.28125 106.496094 L 202.28125 169.832031 "/><g clip-rule="nonzero" clip-path="url(#76a0e0042a)"><path style=" stroke:none;fill-rule:nonzero;fill:#bfbfbf;fill-opacity:1;" d="M 202.28125 106.496094 L 172.671875 106.496094 L 181.667969 72.320312 L 193.285156 72.320312 L 202.28125 106.496094 "/></g><g clip-rule="nonzero" clip-path="url(#1365e82e41)"><path style=" stroke:none;fill-rule:nonzero;fill:#b3b3b3;fill-opacity:1;" d="M 177.167969 89.410156 L 181.667969 72.320312 L 193.285156 72.320312 L 197.785156 89.410156 L 177.167969 89.410156 "/></g></g></svg>