<svg xmlns="http://www.w3.org/2000/svg" xmlns:xlink="http://www.w3.org/1999/xlink" width="500" zoomAndPan="magnify" viewBox="0 0 375 374.999991" height="500" preserveAspectRatio="xMidYMid meet" version="1.2"><defs><clipPath id="febd9427aa"><path d="M 28.480469 28 L 346 28 L 346 346 L 28.480469 346 Z M 28.480469 28 "/></clipPath></defs><g id="2bbd78ab3d"><g clip-rule="nonzero" clip-path="url(#febd9427aa)"><path style=" stroke:none;fill-rule:nonzero;fill:#ffffff;fill-opacity:1;" d="M 190.523438 28.578125 C 100.449219 27.078125 28.546875 99.550781 28.691406 187.476562 C 28.832031 273.328125 97.800781 345.445312 185.800781 345.160156 C 262.496094 347.878906 345.269531 286.351562 345.84375 188.050781 C 346.414062 95.542969 272.941406 30.011719 190.523438 28.578125 Z M 334.96875 192.199219 C 332.464844 273.617188 265.640625 332.28125 192.382812 334.285156 C 104.3125 336.71875 40.28125 267.25 39.707031 187.476562 C 39.0625 102.628906 110.394531 38.523438 187.660156 39.957031 C 265.929688 38.738281 337.613281 104.273438 334.96875 192.199219 Z M 191.523438 93.039062 C 196.03125 93.113281 198.105469 95.113281 198.105469 99.621094 C 198.175781 111.5 198.25 123.375 198.25 135.324219 C 198.25 137.183594 198.25 139.113281 198.25 140.972656 C 198.320312 140.972656 198.320312 140.972656 198.390625 140.972656 C 198.390625 153.996094 198.535156 167.015625 198.320312 180.035156 C 198.25 184.257812 199.679688 187.335938 202.753906 190.195312 C 215.203125 201.859375 227.507812 213.734375 239.886719 225.539062 C 240.671875 226.324219 241.53125 227.113281 242.320312 227.972656 C 246.109375 231.976562 246.46875 234.195312 244.109375 238.917969 C 241.675781 243.78125 238.242188 246.070312 233.589844 245.285156 C 231.660156 245 229.585938 243.925781 228.152344 242.636719 C 212.84375 228.472656 197.675781 214.164062 182.4375 199.925781 C 179.289062 196.992188 177.570312 193.414062 177.570312 188.910156 C 177.5 159.574219 177.359375 130.171875 177.214844 100.839844 C 177.214844 95.1875 179.21875 93.183594 184.796875 93.113281 C 187.015625 93.039062 189.234375 92.96875 191.523438 93.039062 Z M 69.46875 192.84375 C 66.535156 192.988281 63.605469 192.84375 60.742188 192.84375 C 60.742188 192.84375 60.742188 192.914062 60.742188 192.914062 C 57.878906 192.914062 55.089844 192.988281 52.226562 192.914062 C 49.582031 192.84375 48.007812 191.199219 47.792969 188.480469 C 47.578125 185.546875 49.007812 183.183594 51.511719 183.042969 C 57.59375 182.753906 63.746094 182.683594 69.898438 182.898438 C 72.617188 182.96875 74.550781 185.546875 74.40625 188.121094 C 74.261719 191.054688 72.617188 192.699219 69.46875 192.84375 Z M 187.660156 48.96875 C 190.378906 48.96875 192.167969 50.472656 192.308594 53.191406 C 192.453125 55.980469 192.308594 58.84375 192.308594 61.632812 C 192.308594 61.632812 192.308594 61.632812 192.382812 61.632812 C 192.382812 64.351562 192.453125 67.070312 192.382812 69.789062 C 192.308594 72.863281 190.308594 74.652344 187.300781 74.652344 C 184.511719 74.652344 182.4375 72.863281 182.367188 69.933594 C 182.222656 64.28125 182.222656 58.628906 182.367188 52.976562 C 182.4375 50.113281 184.152344 48.96875 187.660156 48.96875 Z M 241.101562 83.667969 C 244.035156 78.804688 247.039062 74.007812 250.046875 69.214844 C 251.90625 66.28125 254.265625 65.566406 256.699219 67.070312 C 258.988281 68.5 259.777344 71.648438 258.203125 74.296875 C 255.410156 79.089844 252.550781 83.882812 249.472656 88.53125 C 248.613281 89.820312 246.96875 90.535156 246.324219 91.035156 C 241.316406 90.964844 239.027344 87.101562 241.101562 83.667969 Z M 308.855469 253.441406 C 308.855469 258.519531 305.347656 260.667969 301.699219 258.519531 C 296.550781 255.585938 291.46875 252.511719 286.390625 249.433594 C 283.671875 247.789062 283.242188 245.714844 284.816406 242.996094 C 286.316406 240.347656 288.535156 239.632812 291.253906 241.207031 C 296.550781 244.28125 301.773438 247.503906 306.921875 250.792969 C 307.996094 251.507812 308.496094 252.941406 308.855469 253.441406 Z M 305.421875 181.96875 C 310.714844 181.824219 315.9375 181.753906 321.230469 181.824219 C 324.664062 181.824219 326.8125 183.972656 326.8125 186.90625 C 326.8125 189.910156 324.808594 191.628906 321.089844 191.628906 C 318.585938 191.628906 316.007812 191.628906 313.433594 191.628906 C 313.433594 191.628906 313.433594 191.699219 313.433594 191.699219 C 310.859375 191.699219 308.351562 191.769531 305.777344 191.699219 C 302.34375 191.628906 300.269531 189.839844 300.269531 186.976562 C 300.269531 183.757812 301.914062 182.039062 305.421875 181.96875 Z M 89.574219 132.316406 C 88.144531 134.105469 86.28125 134.75 84.351562 133.675781 C 78.769531 130.527344 73.332031 127.238281 67.894531 123.875 C 66.109375 122.730469 65.535156 120.726562 66.464844 118.867188 C 67.253906 117.222656 68.683594 115.933594 69.757812 114.644531 C 71.1875 115.21875 71.972656 115.363281 72.617188 115.71875 C 77.839844 118.722656 83.0625 121.730469 88.144531 124.878906 C 91.148438 126.664062 91.648438 129.742188 89.574219 132.316406 Z M 90.789062 246.359375 C 90.289062 247 89.503906 248.433594 88.285156 249.21875 C 83.207031 252.4375 77.914062 255.445312 72.761719 258.589844 C 70.6875 259.878906 68.898438 259.878906 67.253906 257.875 C 65.535156 255.730469 65.535156 252.867188 67.394531 251.152344 C 68.46875 250.148438 69.828125 249.363281 71.117188 248.574219 C 75.195312 246.070312 79.273438 243.496094 83.492188 241.0625 C 87 239.132812 90.71875 241.351562 90.789062 246.359375 Z M 284.746094 131.816406 C 283.171875 129.242188 283.527344 126.738281 286.03125 125.164062 C 291.113281 121.945312 296.261719 118.796875 301.558594 115.863281 C 305.0625 113.859375 308.425781 116.078125 308.496094 121.085938 C 307.996094 121.730469 307.207031 123.375 305.921875 124.160156 C 300.984375 127.308594 295.90625 130.242188 290.898438 133.175781 C 288.394531 134.605469 286.175781 134.035156 284.746094 131.816406 Z M 257.914062 300.875 C 258.34375 301.660156 258.632812 302.589844 258.84375 303.164062 C 258.558594 306.097656 256.984375 307.597656 254.695312 308.386719 C 252.550781 309.101562 251.046875 308.027344 249.972656 306.238281 C 247.039062 301.445312 244.035156 296.652344 241.175781 291.789062 C 239.457031 288.855469 240.101562 286.351562 242.675781 284.703125 C 245.253906 283.132812 247.613281 283.703125 249.402344 286.566406 C 252.335938 291.285156 255.125 296.082031 257.914062 300.875 Z M 135.074219 287.636719 C 134.21875 289.5 133.789062 290.785156 133.144531 291.859375 C 130.355469 296.582031 127.492188 301.230469 124.628906 305.882812 C 122.984375 308.601562 120.980469 309.171875 118.476562 307.886719 C 116.046875 306.527344 115.1875 303.949219 116.617188 301.375 C 119.550781 296.152344 122.625 290.929688 125.773438 285.777344 C 126.992188 283.703125 129.136719 283.058594 131.210938 284.132812 C 132.714844 284.917969 133.789062 286.492188 135.074219 287.636719 Z M 192.453125 312.535156 C 192.453125 315.253906 192.523438 317.972656 192.453125 320.761719 C 192.382812 323.910156 190.59375 325.484375 187.300781 325.484375 C 184.152344 325.484375 182.582031 324.054688 182.507812 320.835938 C 182.367188 315.46875 182.367188 310.101562 182.4375 304.738281 C 182.507812 301.230469 184.441406 299.371094 187.589844 299.371094 C 190.808594 299.371094 192.308594 301.160156 192.382812 304.953125 C 192.453125 307.457031 192.453125 310.03125 192.453125 312.535156 Z M 116.117188 73.222656 C 114.828125 70.933594 116.1875 68.359375 118.621094 67.070312 C 120.980469 65.925781 122.839844 66.570312 124.199219 68.714844 C 127.277344 73.652344 130.355469 78.660156 133.429688 83.667969 C 133.859375 84.382812 134.003906 85.242188 134.574219 86.816406 C 133.429688 87.960938 132.285156 89.605469 130.78125 90.464844 C 129.066406 91.464844 126.917969 91.035156 125.773438 89.25 C 122.414062 84.027344 119.121094 78.730469 116.117188 73.222656 Z M 116.117188 73.222656 "/></g></g></svg>