<svg xmlns="http://www.w3.org/2000/svg" xmlns:xlink="http://www.w3.org/1999/xlink" width="500" zoomAndPan="magnify" viewBox="0 0 375 374.999991" height="500" preserveAspectRatio="xMidYMid meet" version="1.2"><defs><clipPath id="86bb16ef5c"><path d="M 54 156 L 199 156 L 199 325.796875 L 54 325.796875 Z M 54 156 "/></clipPath><clipPath id="aa95475984"><path d="M 49.046875 49.046875 L 325.796875 49.046875 L 325.796875 325.796875 L 49.046875 325.796875 Z M 49.046875 49.046875 "/></clipPath><clipPath id="04f4b34002"><path d="M 95 95 L 325.796875 95 L 325.796875 289 L 95 289 Z M 95 95 "/></clipPath><clipPath id="cb4b392e7d"><path d="M 95 49.046875 L 325.796875 49.046875 L 325.796875 105 L 95 105 Z M 95 49.046875 "/></clipPath></defs><g id="362ccfd69a"><g clip-rule="nonzero" clip-path="url(#86bb16ef5c)"><path style=" stroke:none;fill-rule:nonzero;fill:#feffff;fill-opacity:1;" d="M 169.71875 199.570312 C 169.71875 223.335938 150.382812 242.605469 126.546875 242.605469 C 102.710938 242.605469 83.375 223.34375 83.375 199.570312 C 83.375 175.796875 102.699219 156.535156 126.546875 156.535156 C 150.394531 156.535156 169.71875 175.808594 169.71875 199.570312 Z M 198.492188 325.796875 C 198.492188 284.257812 165.449219 242.890625 126.824219 242.890625 C 88.199219 242.890625 54.582031 284.257812 54.582031 325.796875 "/></g><g clip-rule="nonzero" clip-path="url(#aa95475984)"><path style="fill:none;stroke-width:1.1;stroke-linecap:butt;stroke-linejoin:miter;stroke:#d43318;stroke-opacity:1;stroke-miterlimit:10;" d="M 14.080922 17.316871 C 14.080922 19.893091 11.984885 21.981929 9.401043 21.981929 C 6.817202 21.981929 4.721165 19.893938 4.721165 17.316871 C 4.721165 14.739805 6.815931 12.651813 9.401043 12.651813 C 11.986155 12.651813 14.080922 14.741075 14.080922 17.316871 Z M 17.199994 30.999968 C 17.199994 26.497089 13.6181 22.01284 9.431108 22.01284 C 5.244116 22.01284 1.599976 26.497089 1.599976 30.999968 " transform="matrix(9.224999,0,0,9.224999,39.822255,39.822185)"/></g><path style=" stroke:none;fill-rule:nonzero;fill:#feffff;fill-opacity:1;" d="M 99.785156 99.785156 L 99.785156 146.390625 C 107.882812 142.257812 117.042969 139.914062 126.75 139.914062 C 159.527344 139.914062 186.195312 166.519531 186.195312 199.210938 C 186.195312 214.71875 180.171875 229.265625 169.773438 240.125 C 185.464844 250.605469 198.195312 266.277344 206.121094 284.285156 L 321.183594 284.285156 L 321.183594 99.785156 Z M 99.785156 99.785156 "/><g clip-rule="nonzero" clip-path="url(#04f4b34002)"><path style=" stroke:none;fill-rule:nonzero;fill:#64180b;fill-opacity:1;" d="M 325.796875 95.171875 L 325.796875 288.898438 L 208.03125 288.898438 C 206.824219 285.761719 205.464844 282.679688 203.972656 279.671875 L 316.570312 279.671875 L 316.570312 104.398438 L 104.398438 104.398438 L 104.398438 144.277344 C 101.167969 145.585938 98.085938 147.171875 95.171875 149.007812 L 95.171875 95.171875 Z M 325.796875 95.171875 "/></g><path style=" stroke:none;fill-rule:nonzero;fill:#f29c8d;fill-opacity:1;" d="M 99.785156 53.660156 L 321.183594 53.660156 L 321.183594 99.785156 L 99.785156 99.785156 Z M 99.785156 53.660156 "/><g clip-rule="nonzero" clip-path="url(#cb4b392e7d)"><path style=" stroke:none;fill-rule:nonzero;fill:#a62812;fill-opacity:1;" d="M 95.171875 49.046875 L 95.171875 104.398438 L 325.796875 104.398438 L 325.796875 49.046875 Z M 316.570312 95.171875 L 104.398438 95.171875 L 104.398438 58.273438 L 316.570312 58.273438 Z M 316.570312 95.171875 "/></g><path style=" stroke:none;fill-rule:nonzero;fill:#d83418;fill-opacity:0.6;" d="M 104.398438 144.277344 L 104.398438 141.296875 L 114.019531 141.296875 C 110.699219 142.027344 107.488281 143.023438 104.398438 144.277344 Z M 270.445312 150.523438 L 270.445312 187.421875 L 316.570312 187.421875 L 316.570312 196.648438 L 270.445312 196.648438 L 270.445312 233.546875 L 316.570312 233.546875 L 316.570312 242.773438 L 270.445312 242.773438 L 270.445312 279.671875 L 261.222656 279.671875 L 261.222656 242.773438 L 215.097656 242.773438 L 215.097656 279.671875 L 205.871094 279.671875 L 205.871094 242.773438 L 173.511719 242.773438 C 172.285156 241.859375 171.046875 240.972656 169.773438 240.125 C 171.75 238.058594 173.566406 235.863281 175.21875 233.546875 L 205.871094 233.546875 L 205.871094 196.648438 L 186.128906 196.648438 C 185.992188 193.5 185.625 190.421875 185.015625 187.421875 L 205.871094 187.421875 L 205.871094 150.523438 L 160.625 150.523438 C 154.351562 146.167969 147.191406 142.984375 139.480469 141.296875 L 150.523438 141.296875 L 150.523438 104.398438 L 159.746094 104.398438 L 159.746094 141.296875 L 205.871094 141.296875 L 205.871094 104.398438 L 215.097656 104.398438 L 215.097656 141.296875 L 261.222656 141.296875 L 261.222656 104.398438 L 270.445312 104.398438 L 270.445312 141.296875 L 316.570312 141.296875 L 316.570312 150.523438 Z M 261.222656 196.648438 L 215.097656 196.648438 L 215.097656 233.546875 L 261.222656 233.546875 Z M 261.222656 150.523438 L 215.097656 150.523438 L 215.097656 187.421875 L 261.222656 187.421875 Z M 261.222656 150.523438 "/></g></svg>