<svg xmlns="http://www.w3.org/2000/svg" xmlns:xlink="http://www.w3.org/1999/xlink" width="500" zoomAndPan="magnify" viewBox="0 0 375 374.999991" height="500" preserveAspectRatio="xMidYMid meet" version="1.2"><defs><clipPath id="53e6c7c7d3"><path d="M 48.191406 48.191406 L 326.441406 48.191406 L 326.441406 326.441406 L 48.191406 326.441406 Z M 48.191406 48.191406 "/></clipPath></defs><g id="60c30a73c3"><g clip-rule="nonzero" clip-path="url(#53e6c7c7d3)"><path style=" stroke:none;fill-rule:evenodd;fill:#ffffff;fill-opacity:1;" d="M 101.261719 249.246094 C 89.921875 249.246094 80.730469 258.433594 80.730469 269.769531 C 80.730469 281.101562 89.921875 290.292969 101.261719 290.292969 C 112.585938 290.292969 121.777344 281.101562 121.777344 269.769531 C 121.777344 258.433594 112.585938 249.246094 101.261719 249.246094 Z M 242.128906 244.324219 C 256.183594 244.324219 267.570312 255.714844 267.570312 269.769531 C 267.570312 283.820312 256.183594 295.214844 242.128906 295.214844 C 228.074219 295.214844 216.6875 283.820312 216.6875 269.769531 C 216.6875 255.714844 228.074219 244.324219 242.128906 244.324219 Z M 242.128906 235.75 C 228.039062 235.75 215.949219 244.316406 210.789062 256.527344 L 210.445312 257.628906 L 157.878906 257.628906 C 152.019531 257.628906 147.117188 261.789062 145.988281 267.320312 L 145.742188 269.769531 L 145.988281 272.214844 C 147.117188 277.746094 152.019531 281.910156 157.878906 281.910156 L 210.445312 281.910156 L 210.789062 283.011719 C 215.949219 295.21875 228.039062 303.785156 242.128906 303.785156 C 256.21875 303.785156 268.308594 295.21875 273.480469 283.011719 L 273.8125 281.910156 L 281.761719 281.910156 C 288.457031 281.910156 293.898438 276.472656 293.898438 269.769531 C 293.898438 263.0625 288.457031 257.628906 281.761719 257.628906 L 273.8125 257.628906 L 273.480469 256.527344 C 268.308594 244.316406 256.21875 235.75 242.128906 235.75 Z M 101.261719 162.675781 C 89.921875 162.675781 80.730469 171.863281 80.730469 183.195312 C 80.730469 194.53125 89.921875 203.71875 101.261719 203.71875 C 112.585938 203.71875 121.777344 194.53125 121.777344 183.195312 C 121.777344 171.863281 112.585938 162.675781 101.261719 162.675781 Z M 196.183594 157.753906 C 210.238281 157.753906 221.636719 169.144531 221.636719 183.195312 C 221.636719 197.25 210.238281 208.640625 196.183594 208.640625 C 182.144531 208.640625 170.742188 197.25 170.742188 183.195312 C 170.742188 169.144531 182.144531 157.753906 196.183594 157.753906 Z M 196.183594 149.179688 C 182.09375 149.179688 170.003906 157.746094 164.847656 169.957031 L 164.503906 171.054688 L 157.878906 171.054688 C 152.019531 171.054688 147.117188 175.21875 145.988281 180.75 L 145.742188 183.195312 L 145.988281 185.644531 C 147.117188 191.175781 152.019531 195.339844 157.878906 195.339844 L 164.503906 195.339844 L 164.847656 196.4375 C 170.003906 208.648438 182.09375 217.214844 196.183594 217.214844 C 210.273438 217.214844 222.375 208.648438 227.535156 196.4375 L 227.878906 195.339844 L 281.761719 195.339844 C 288.457031 195.339844 293.898438 189.902344 293.898438 183.195312 C 293.898438 176.492188 288.457031 171.054688 281.761719 171.054688 L 227.878906 171.054688 L 227.535156 169.957031 C 222.375 157.746094 210.273438 149.179688 196.183594 149.179688 Z M 101.261719 84.339844 C 89.921875 84.339844 80.730469 93.527344 80.730469 104.859375 C 80.730469 116.195312 89.921875 125.382812 101.261719 125.382812 C 112.585938 125.382812 121.777344 116.195312 121.777344 104.859375 C 121.777344 93.527344 112.585938 84.339844 101.261719 84.339844 Z M 246.476562 79.417969 C 260.53125 79.417969 271.921875 90.808594 271.921875 104.859375 C 271.921875 118.914062 260.53125 130.304688 246.476562 130.304688 C 232.425781 130.304688 221.035156 118.914062 221.035156 104.859375 C 221.035156 90.808594 232.425781 79.417969 246.476562 79.417969 Z M 246.476562 70.84375 C 232.386719 70.84375 220.300781 79.410156 215.128906 91.617188 L 214.796875 92.71875 L 157.878906 92.71875 C 152.019531 92.71875 147.117188 96.882812 145.988281 102.414062 L 145.742188 104.859375 L 145.988281 107.308594 C 147.117188 112.839844 152.019531 117 157.878906 117 L 214.796875 117 L 215.128906 118.101562 C 220.300781 130.3125 232.386719 138.878906 246.476562 138.878906 C 260.570312 138.878906 272.65625 130.3125 277.816406 118.101562 L 278.160156 117 L 281.761719 117 C 288.457031 117 293.898438 111.566406 293.898438 104.859375 C 293.898438 98.15625 288.457031 92.71875 281.761719 92.71875 L 278.160156 92.71875 L 277.816406 91.617188 C 272.65625 79.410156 260.570312 70.84375 246.476562 70.84375 Z M 94.566406 48.191406 L 280.066406 48.191406 C 305.679688 48.191406 326.441406 68.953125 326.441406 94.566406 L 326.441406 280.0625 C 326.441406 305.675781 305.679688 326.441406 280.066406 326.441406 L 94.566406 326.441406 C 68.949219 326.441406 48.191406 305.675781 48.191406 280.0625 L 48.191406 94.566406 C 48.191406 68.953125 68.949219 48.191406 94.566406 48.191406 Z M 94.566406 48.191406 "/></g></g></svg>