<svg xmlns="http://www.w3.org/2000/svg" xmlns:xlink="http://www.w3.org/1999/xlink" width="500" zoomAndPan="magnify" viewBox="0 0 375 374.999991" height="500" preserveAspectRatio="xMidYMid meet" version="1.2"><defs><clipPath id="d216d128cc"><path d="M 41.179688 29.769531 L 333.667969 29.769531 L 333.667969 345.0625 L 41.179688 345.0625 Z M 41.179688 29.769531 "/></clipPath></defs><g id="4d0bc63353"><g clip-rule="nonzero" clip-path="url(#d216d128cc)"><path style=" stroke:none;fill-rule:nonzero;fill:#ffffff;fill-opacity:1;" d="M 277.269531 277.925781 C 277.242188 277.386719 277.226562 276.859375 277.226562 276.347656 L 277.226562 273.753906 C 277.226562 271.546875 276.144531 270.402344 275.425781 269.886719 C 274.65625 269.285156 273.667969 268.953125 272.480469 268.902344 C 271.746094 268.871094 271.035156 268.851562 270.359375 268.851562 L 259.714844 268.851562 C 259.660156 268.851562 259.613281 268.851562 259.566406 268.851562 C 259.566406 268.828125 259.5625 268.800781 259.5625 268.777344 C 259.535156 268.136719 259.519531 267.429688 259.519531 266.601562 L 259.519531 256.273438 C 259.519531 255.066406 259.246094 254.015625 258.707031 253.140625 C 258.1875 252.289062 257.339844 251.695312 256.179688 251.371094 C 255.460938 251.175781 254.675781 251.054688 253.839844 251.015625 C 253.582031 251.003906 253.328125 251 253.070312 251 C 252.558594 251 252.027344 251.023438 251.5 251.066406 C 250.890625 251.121094 250.347656 251.148438 249.878906 251.148438 C 249.246094 251.148438 248.742188 251.214844 248.300781 251.359375 L 248.261719 251.375 L 248.222656 251.386719 C 246.609375 251.972656 245.878906 252.992188 245.546875 253.792969 C 245.152344 254.628906 244.976562 255.601562 245.023438 256.691406 C 245.050781 257.378906 245.066406 258.035156 245.066406 258.640625 L 245.066406 266.332031 C 245.066406 267.042969 245.082031 267.769531 245.113281 268.496094 C 245.121094 268.609375 245.117188 268.703125 245.113281 268.78125 C 244.355469 268.832031 243.523438 268.851562 242.636719 268.851562 L 232.84375 268.851562 C 231.789062 268.851562 230.902344 268.992188 230.136719 269.28125 L 230.125 269.285156 L 230.117188 269.289062 C 228.394531 269.953125 227.375 271.472656 227.316406 273.457031 C 227.285156 274.429688 227.269531 275.464844 227.269531 276.527344 C 227.269531 277.25 227.285156 277.917969 227.320312 278.574219 C 227.371094 279.679688 227.691406 280.652344 228.273438 281.464844 C 228.777344 282.171875 229.773438 283.058594 231.613281 283.207031 C 232.382812 283.273438 233.175781 283.308594 233.960938 283.308594 L 245.015625 283.308594 C 245.019531 283.34375 245.023438 283.386719 245.023438 283.429688 C 245.050781 284.117188 245.066406 284.832031 245.066406 285.558594 L 245.066406 295.933594 C 245.066406 297.238281 245.375 298.328125 245.980469 299.171875 L 246.011719 299.210938 C 246.566406 299.953125 247.632812 300.867188 249.5625 301.007812 C 250.414062 301.070312 251.304688 301.101562 252.203125 301.101562 C 252.640625 301.101562 253.066406 301.117188 253.476562 301.140625 C 253.625 301.152344 253.773438 301.15625 253.917969 301.15625 C 254.5 301.15625 255.089844 301.082031 255.664062 300.941406 L 255.828125 300.898438 L 255.988281 300.835938 C 256.242188 300.734375 256.484375 300.644531 256.703125 300.574219 C 257.449219 300.324219 258.097656 299.855469 258.578125 299.210938 L 258.59375 299.191406 L 258.609375 299.167969 C 259.214844 298.320312 259.519531 297.265625 259.519531 296.019531 L 259.519531 283.457031 C 259.519531 283.425781 259.519531 283.394531 259.523438 283.367188 C 260.074219 283.328125 260.679688 283.308594 261.324219 283.308594 L 270.179688 283.308594 C 271.277344 283.308594 272.289062 283.257812 273.179688 283.160156 C 274.84375 282.972656 276.167969 282.007812 276.824219 280.511719 C 277.171875 279.777344 277.316406 278.929688 277.269531 277.925781 Z M 332.703125 339.800781 C 330.351562 345.972656 320.902344 345.15625 315.707031 344.851562 L 59.136719 344.851562 C 53.945312 345.15625 44.492188 345.972656 42.144531 339.800781 C 40.714844 336.039062 41.308594 330.273438 41.261719 326.300781 C 41.148438 317.207031 41.859375 308.117188 42.742188 299.070312 C 47.320312 252.214844 92.773438 225.179688 134.632812 214.261719 C 136.101562 213.878906 137.730469 213.53125 139.085938 214.21875 C 140.429688 214.90625 141.101562 216.402344 141.742188 217.765625 C 150.296875 236.011719 168.753906 245.90625 187.421875 246.582031 C 206.09375 245.90625 224.550781 236.011719 233.105469 217.765625 C 233.742188 216.402344 234.417969 214.90625 235.757812 214.21875 C 237.113281 213.53125 238.746094 213.878906 240.214844 214.261719 C 282.074219 225.179688 327.527344 252.214844 332.105469 299.070312 C 332.988281 308.117188 333.695312 317.207031 333.585938 326.300781 C 333.539062 330.273438 334.132812 336.039062 332.703125 339.800781 Z M 119.1875 157.972656 C 116.074219 151.089844 109.5 138.207031 114.136719 130.816406 C 115.605469 128.472656 118.117188 126.824219 120.839844 126.363281 C 121.003906 126.335938 120.550781 106.238281 120.59375 104.519531 C 120.839844 95.234375 122.78125 86.207031 124.105469 77.050781 C 124.523438 74.132812 124.375 70.414062 125.566406 67.6875 C 126.203125 66.230469 127.59375 65.199219 128.230469 63.84375 C 128.300781 63.6875 128.371094 63.535156 128.445312 63.378906 C 127.027344 56.445312 132.078125 52.539062 137.21875 50.394531 C 137.230469 50.382812 137.242188 50.367188 137.257812 50.351562 C 137.257812 50.316406 137.261719 50.285156 137.261719 50.253906 C 130.917969 40.875 170.738281 31.796875 174.511719 31.007812 C 177.144531 30.457031 179.804688 30.066406 182.5 29.886719 C 185.375 29.691406 188.257812 29.738281 191.125 30.015625 C 195.972656 30.480469 200.761719 31.601562 205.328125 33.3125 C 211.210938 35.515625 218.035156 37.148438 222.792969 41.546875 C 226.957031 45.394531 229.003906 51.253906 234.277344 53.960938 C 241.972656 57.914062 248.757812 64.617188 251.296875 73.042969 C 252.628906 77.464844 252.410156 82.238281 253.078125 86.789062 C 253.878906 92.238281 254.542969 97.722656 254.667969 103.238281 C 254.839844 110.886719 254.496094 118.535156 254.496094 126.183594 C 258.121094 126.785156 261.0625 130.15625 261.933594 133.816406 C 263.054688 138.519531 261.488281 143.417969 259.988281 147.859375 C 258.957031 150.910156 256.449219 154.457031 256 157.589844 C 255.820312 158.859375 255.359375 161.449219 254.359375 164.121094 C 251.394531 172.035156 246.371094 173.230469 243.636719 173.238281 C 243.328125 173.238281 243.015625 173.222656 242.699219 173.195312 C 241.589844 177.84375 239.355469 184.886719 235.003906 192 C 214.96875 224.753906 160.609375 224.925781 140.378906 192.261719 C 135.988281 185.175781 133.710938 178.144531 132.574219 173.503906 C 132.261719 173.53125 131.949219 173.546875 131.636719 173.550781 C 128.90625 173.554688 123.875 172.390625 120.867188 164.492188 C 119.851562 161.828125 119.378906 159.238281 119.1875 157.972656 "/></g></g></svg>