<svg xmlns="http://www.w3.org/2000/svg" xmlns:xlink="http://www.w3.org/1999/xlink" width="500" zoomAndPan="magnify" viewBox="0 0 375 374.999991" height="500" preserveAspectRatio="xMidYMid meet" version="1.2"><defs><clipPath id="d5f2e8df5e"><path d="M 43.410156 77 L 331 77 L 331 298 L 43.410156 298 Z M 43.410156 77 "/></clipPath></defs><g id="94804124c0"><g clip-rule="nonzero" clip-path="url(#d5f2e8df5e)"><path style=" stroke:none;fill-rule:nonzero;fill:#ffffff;fill-opacity:1;" d="M 319.261719 151.492188 L 308.855469 151.492188 L 308.855469 127.835938 C 308.855469 116.636719 299.75 107.523438 288.550781 107.523438 L 191.546875 107.523438 L 170.417969 77.070312 L 63.714844 77.070312 C 52.519531 77.070312 43.410156 86.1875 43.410156 97.382812 L 43.410156 277.628906 C 43.410156 288.828125 52.519531 297.941406 63.714844 297.941406 L 287.566406 297.941406 C 295.191406 297.941406 302.746094 291.84375 304.371094 284.378906 L 330.199219 165.042969 C 331.816406 157.59375 326.90625 151.492188 319.261719 151.492188 Z M 239.710938 208.195312 L 232.691406 241.214844 L 204.980469 241.214844 L 199.09375 268.917969 L 166.078125 268.917969 L 171.960938 241.214844 L 144.273438 241.214844 L 151.28125 208.195312 L 178.976562 208.195312 L 184.855469 180.507812 L 217.871094 180.507812 L 212.003906 208.195312 Z M 96.410156 151.492188 C 88.773438 151.492188 81.226562 157.59375 79.613281 165.042969 L 58.261719 263.625 L 58.261719 97.382812 C 58.261719 94.386719 60.699219 91.9375 63.707031 91.9375 L 162.648438 91.9375 L 183.769531 122.398438 L 288.5625 122.398438 C 291.566406 122.398438 294 124.847656 294 127.84375 L 294 151.503906 L 96.410156 151.503906 Z M 96.410156 151.492188 "/></g><path style=" stroke:none;fill-rule:nonzero;fill:#ffffff;fill-opacity:1;" d="M 114.785156 143.554688 L 286.917969 143.554688 L 286.917969 130.679688 L 114.785156 130.679688 C 105.238281 130.679688 96.140625 137.265625 92.703125 146.121094 L 108.164062 146.121094 C 110.089844 144.550781 112.46875 143.554688 114.785156 143.554688 Z M 114.785156 143.554688 "/></g></svg>