<svg xmlns="http://www.w3.org/2000/svg" xmlns:xlink="http://www.w3.org/1999/xlink" width="500" zoomAndPan="magnify" viewBox="0 0 375 374.999991" height="500" preserveAspectRatio="xMidYMid meet" version="1.2"><defs><clipPath id="e20b9b8ae8"><path d="M 56.402344 37.5 L 318.902344 37.5 L 318.902344 336 L 56.402344 336 Z M 56.402344 37.5 "/></clipPath></defs><g id="de5edf5e85"><g clip-rule="nonzero" clip-path="url(#e20b9b8ae8)"><path style=" stroke:none;fill-rule:evenodd;fill:#ffffff;fill-opacity:1;" d="M 189.613281 226.953125 L 189.613281 251.226562 C 189.613281 251.914062 189.953125 252.503906 190.550781 252.847656 L 209.546875 263.816406 C 210.796875 264.539062 212.351562 263.640625 212.351562 262.195312 L 212.351562 229.78125 L 290.761719 184.511719 L 315.480469 198.78125 C 317.464844 199.925781 318.597656 201.894531 318.597656 204.183594 L 318.597656 287.523438 C 318.597656 289.8125 317.464844 291.777344 315.480469 292.921875 L 243.308594 334.59375 C 241.324219 335.738281 239.054688 335.738281 237.070312 334.59375 L 164.894531 292.921875 C 162.914062 291.777344 161.777344 289.8125 161.777344 287.523438 L 161.777344 212.105469 L 184.046875 224.960938 C 185.808594 225.980469 187.695312 226.644531 189.613281 226.953125 Z M 195.273438 38.839844 C 193.289062 37.695312 191.019531 37.695312 189.039062 38.839844 L 116.863281 80.511719 C 114.878906 81.65625 113.746094 83.621094 113.746094 85.910156 L 113.746094 169.25 C 113.746094 171.539062 114.878906 173.507812 116.863281 174.652344 L 189.035156 216.320312 C 191.019531 217.464844 193.289062 217.464844 195.273438 216.320312 L 267.449219 174.652344 C 269.429688 173.507812 270.566406 171.539062 270.566406 169.25 L 270.566406 85.910156 C 270.566406 83.621094 269.429688 81.65625 267.449219 80.511719 L 242.730469 66.238281 L 164.320312 111.511719 L 164.320312 143.921875 C 164.320312 145.367188 162.765625 146.265625 161.511719 145.542969 L 142.515625 134.574219 C 141.921875 134.230469 141.582031 133.640625 141.582031 132.953125 L 141.582031 98.382812 L 219.992188 53.109375 Z M 103.765625 144.527344 L 84.226562 155.808594 L 84.226562 190.378906 C 84.226562 191.066406 84.566406 191.65625 85.160156 192 L 104.160156 202.96875 C 105.410156 203.691406 106.964844 202.792969 106.964844 201.347656 L 106.964844 178.953125 C 108.257812 180.679688 109.914062 182.160156 111.875 183.292969 L 151.796875 206.34375 L 151.796875 265.734375 L 137.917969 273.746094 C 135.933594 274.890625 133.664062 274.890625 131.679688 273.746094 L 59.507812 232.078125 C 57.527344 230.933594 56.390625 228.96875 56.390625 226.675781 L 56.390625 143.335938 C 56.390625 141.046875 57.527344 139.082031 59.507812 137.9375 L 103.765625 112.386719 Z M 103.765625 144.527344 "/></g></g></svg>