<svg xmlns="http://www.w3.org/2000/svg" xmlns:xlink="http://www.w3.org/1999/xlink" width="500" zoomAndPan="magnify" viewBox="0 0 375 374.999991" height="500" preserveAspectRatio="xMidYMid meet" version="1.2"><defs><clipPath id="b25985bb77"><path d="M 59.050781 59.050781 L 315 59.050781 L 315 315 L 59.050781 315 Z M 59.050781 59.050781 "/></clipPath></defs><g id="97c91ec36c"><g clip-rule="nonzero" clip-path="url(#b25985bb77)"><path style=" stroke:none;fill-rule:evenodd;fill:#ffffff;fill-opacity:1;" d="M 115.867188 59.050781 L 283.660156 59.050781 C 294.148438 59.050781 302.699219 67.605469 302.699219 78.089844 L 302.699219 129.621094 C 302.699219 130.375 302.277344 131.039062 301.613281 131.371094 C 300.949219 131.734375 300.160156 131.675781 299.527344 131.25 C 294.753906 127.898438 288.890625 125.902344 282.601562 125.902344 L 237.8125 125.902344 C 232.011719 125.902344 227.234375 121.15625 227.234375 115.355469 L 227.234375 111.335938 C 227.234375 95.046875 213.96875 81.746094 197.648438 81.746094 L 100.847656 81.746094 C 98.582031 81.746094 96.796875 79.902344 96.859375 77.667969 C 97.070312 67.363281 105.53125 59.050781 115.867188 59.050781 Z M 256.039062 197.589844 C 288.316406 197.589844 314.488281 223.761719 314.488281 256.039062 C 314.488281 288.316406 288.316406 314.488281 256.039062 314.488281 C 223.761719 314.488281 197.589844 288.316406 197.589844 256.039062 C 197.589844 223.761719 223.761719 197.589844 256.039062 197.589844 Z M 253.5 264.320312 C 253.5 262.898438 254.648438 261.75 256.097656 261.75 C 257.519531 261.75 258.699219 262.898438 258.699219 264.320312 C 258.699219 265.769531 257.519531 266.917969 256.097656 266.917969 C 254.648438 266.917969 253.5 265.769531 253.5 264.320312 Z M 260.753906 253.890625 L 260.753906 227.296875 C 260.753906 224.726562 258.667969 222.640625 256.097656 222.640625 C 253.53125 222.640625 251.414062 224.726562 251.414062 227.296875 L 251.414062 258.636719 C 249.722656 260.027344 248.722656 262.113281 248.722656 264.320312 C 248.722656 268.398438 252.019531 271.691406 256.097656 271.691406 C 260.148438 271.691406 263.472656 268.398438 263.472656 264.320312 C 263.472656 264.226562 263.472656 264.105469 263.441406 264.015625 L 282.421875 247.03125 C 284.324219 245.339844 284.507812 242.378906 282.785156 240.441406 C 281.0625 238.539062 278.101562 238.386719 276.195312 240.082031 Z M 192.691406 281.9375 L 79.117188 281.9375 C 68.085938 281.9375 59.050781 272.902344 59.050781 261.839844 C 59.050781 200.914062 59.050781 172.261719 59.050781 111.335938 C 59.050781 100.273438 68.058594 91.269531 79.117188 91.269531 L 197.648438 91.269531 C 208.710938 91.269531 217.714844 100.273438 217.714844 111.335938 L 217.714844 115.355469 C 217.714844 126.414062 226.753906 135.421875 237.8125 135.421875 L 282.601562 135.421875 C 293.664062 135.421875 302.699219 144.457031 302.699219 155.488281 L 302.699219 205.988281 C 290.460938 194.597656 274.050781 187.617188 256.039062 187.617188 C 218.230469 187.617188 187.617188 218.230469 187.617188 256.039062 C 187.617188 265.195312 189.398438 273.929688 192.691406 281.9375 Z M 88.035156 202 L 169.964844 202 C 174.832031 202 178.789062 205.988281 178.789062 210.855469 C 178.789062 215.691406 174.832031 219.679688 169.964844 219.679688 L 88.035156 219.679688 C 83.167969 219.679688 79.210938 215.691406 79.210938 210.855469 C 79.210938 205.988281 83.167969 202 88.035156 202 Z M 99.035156 233.25 L 158.964844 233.25 C 163.800781 233.25 167.789062 237.210938 167.789062 242.074219 C 167.789062 246.941406 163.800781 250.898438 158.964844 250.898438 L 99.035156 250.898438 C 94.167969 250.898438 90.210938 246.941406 90.210938 242.074219 C 90.210938 237.210938 94.167969 233.25 99.035156 233.25 Z M 99.035156 233.25 "/></g></g></svg>