<svg xmlns="http://www.w3.org/2000/svg" xmlns:xlink="http://www.w3.org/1999/xlink" width="500" zoomAndPan="magnify" viewBox="0 0 375 374.999991" height="500" preserveAspectRatio="xMidYMid meet" version="1.2"><defs><clipPath id="4933d1e6e0"><path d="M 282 181 L 289 181 L 289 314.574219 L 282 314.574219 Z M 282 181 "/></clipPath><clipPath id="8d7aa30f97"><path d="M 82 260 L 90 260 L 90 314.574219 L 82 314.574219 Z M 82 260 "/></clipPath><clipPath id="c682b00bb3"><path d="M 215 223 L 223 223 L 223 314.574219 L 215 314.574219 Z M 215 223 "/></clipPath><clipPath id="0e23770297"><path d="M 248 198 L 256 198 L 256 314.574219 L 248 314.574219 Z M 248 198 "/></clipPath><clipPath id="ef2ce57f25"><path d="M 116 231 L 123 231 L 123 314.574219 L 116 314.574219 Z M 116 231 "/></clipPath><clipPath id="2c100ab778"><path d="M 182 245 L 189 245 L 189 314.574219 L 182 314.574219 Z M 182 245 "/></clipPath><clipPath id="0112fd0413"><path d="M 149 212 L 156 212 L 156 314.574219 L 149 314.574219 Z M 149 212 "/></clipPath><clipPath id="89b17c3414"><path d="M 32.878906 60.324219 L 341.878906 60.324219 L 341.878906 260 L 32.878906 260 Z M 32.878906 60.324219 "/></clipPath></defs><g id="13e67ac0f7"><g clip-rule="nonzero" clip-path="url(#4933d1e6e0)"><path style=" stroke:none;fill-rule:nonzero;fill:#ffffff;fill-opacity:1;" d="M 288.449219 184.777344 L 288.449219 311.046875 C 288.449219 311.476562 288.367188 311.886719 288.203125 312.28125 C 288.039062 312.675781 287.808594 313.023438 287.503906 313.324219 C 287.203125 313.625 286.855469 313.859375 286.460938 314.023438 C 286.066406 314.183594 285.65625 314.265625 285.230469 314.265625 C 284.800781 314.265625 284.390625 314.183594 283.996094 314.023438 C 283.601562 313.859375 283.253906 313.625 282.953125 313.324219 C 282.652344 313.023438 282.417969 312.675781 282.253906 312.28125 C 282.09375 311.886719 282.011719 311.476562 282.011719 311.046875 L 282.011719 184.777344 C 282.011719 184.347656 282.09375 183.9375 282.253906 183.542969 C 282.417969 183.148438 282.652344 182.800781 282.953125 182.5 C 283.253906 182.199219 283.601562 181.964844 283.996094 181.800781 C 284.390625 181.640625 284.800781 181.558594 285.230469 181.558594 C 285.65625 181.558594 286.066406 181.640625 286.460938 181.800781 C 286.855469 181.964844 287.203125 182.199219 287.503906 182.5 C 287.808594 182.800781 288.039062 183.148438 288.203125 183.542969 C 288.367188 183.9375 288.449219 184.347656 288.449219 184.777344 Z M 288.449219 184.777344 "/></g><g clip-rule="nonzero" clip-path="url(#8d7aa30f97)"><path style=" stroke:none;fill-rule:nonzero;fill:#ffffff;fill-opacity:1;" d="M 89.425781 263.523438 L 89.425781 311.046875 C 89.425781 311.476562 89.34375 311.886719 89.179688 312.28125 C 89.019531 312.675781 88.785156 313.023438 88.484375 313.324219 C 88.179688 313.625 87.832031 313.859375 87.4375 314.023438 C 87.042969 314.183594 86.632812 314.265625 86.207031 314.265625 C 85.78125 314.265625 85.371094 314.183594 84.976562 314.023438 C 84.582031 313.859375 84.234375 313.625 83.929688 313.324219 C 83.628906 313.023438 83.398438 312.675781 83.234375 312.28125 C 83.070312 311.886719 82.988281 311.476562 82.988281 311.046875 L 82.988281 263.523438 C 82.988281 263.097656 83.070312 262.6875 83.234375 262.292969 C 83.398438 261.898438 83.628906 261.550781 83.929688 261.246094 C 84.234375 260.945312 84.582031 260.710938 84.976562 260.550781 C 85.371094 260.386719 85.78125 260.304688 86.207031 260.304688 C 86.632812 260.304688 87.042969 260.386719 87.4375 260.550781 C 87.832031 260.710938 88.179688 260.945312 88.484375 261.246094 C 88.785156 261.550781 89.019531 261.898438 89.179688 262.292969 C 89.34375 262.6875 89.425781 263.097656 89.425781 263.523438 Z M 89.425781 263.523438 "/></g><g clip-rule="nonzero" clip-path="url(#c682b00bb3)"><path style=" stroke:none;fill-rule:nonzero;fill:#ffffff;fill-opacity:1;" d="M 222.101562 227.152344 L 222.101562 311.046875 C 222.101562 311.476562 222.019531 311.886719 221.859375 312.28125 C 221.695312 312.675781 221.460938 313.023438 221.160156 313.324219 C 220.859375 313.625 220.511719 313.859375 220.117188 314.023438 C 219.722656 314.183594 219.3125 314.265625 218.882812 314.265625 C 218.457031 314.265625 218.046875 314.183594 217.652344 314.023438 C 217.257812 313.859375 216.910156 313.625 216.609375 313.324219 C 216.304688 313.023438 216.074219 312.675781 215.910156 312.28125 C 215.746094 311.886719 215.664062 311.476562 215.664062 311.046875 L 215.664062 227.152344 C 215.664062 226.722656 215.746094 226.3125 215.910156 225.917969 C 216.074219 225.523438 216.304688 225.175781 216.609375 224.875 C 216.910156 224.574219 217.257812 224.339844 217.652344 224.175781 C 218.046875 224.015625 218.457031 223.933594 218.882812 223.933594 C 219.3125 223.933594 219.722656 224.015625 220.117188 224.175781 C 220.511719 224.339844 220.859375 224.574219 221.160156 224.875 C 221.460938 225.175781 221.695312 225.523438 221.859375 225.917969 C 222.019531 226.3125 222.101562 226.722656 222.101562 227.152344 Z M 222.101562 227.152344 "/></g><g clip-rule="nonzero" clip-path="url(#0e23770297)"><path style=" stroke:none;fill-rule:nonzero;fill:#ffffff;fill-opacity:1;" d="M 255.292969 201.871094 L 255.292969 311.046875 C 255.292969 311.476562 255.210938 311.886719 255.050781 312.28125 C 254.886719 312.675781 254.652344 313.023438 254.351562 313.324219 C 254.050781 313.625 253.703125 313.859375 253.308594 314.023438 C 252.914062 314.183594 252.503906 314.265625 252.074219 314.265625 C 251.648438 314.265625 251.238281 314.183594 250.84375 314.023438 C 250.449219 313.859375 250.101562 313.625 249.800781 313.324219 C 249.496094 313.023438 249.265625 312.675781 249.101562 312.28125 C 248.9375 311.886719 248.855469 311.476562 248.855469 311.046875 L 248.855469 201.871094 C 248.855469 201.445312 248.9375 201.035156 249.101562 200.640625 C 249.265625 200.246094 249.496094 199.898438 249.800781 199.59375 C 250.101562 199.292969 250.449219 199.0625 250.84375 198.898438 C 251.238281 198.734375 251.648438 198.652344 252.074219 198.652344 C 252.503906 198.652344 252.914062 198.734375 253.308594 198.898438 C 253.703125 199.0625 254.050781 199.292969 254.351562 199.59375 C 254.652344 199.898438 254.886719 200.246094 255.050781 200.640625 C 255.210938 201.035156 255.292969 201.445312 255.292969 201.871094 Z M 255.292969 201.871094 "/></g><g clip-rule="nonzero" clip-path="url(#ef2ce57f25)"><path style=" stroke:none;fill-rule:nonzero;fill:#ffffff;fill-opacity:1;" d="M 122.609375 234.554688 L 122.609375 311.046875 C 122.609375 311.476562 122.53125 311.886719 122.367188 312.28125 C 122.203125 312.675781 121.96875 313.023438 121.667969 313.324219 C 121.367188 313.625 121.019531 313.859375 120.625 314.023438 C 120.230469 314.183594 119.820312 314.265625 119.390625 314.265625 C 118.964844 314.265625 118.554688 314.183594 118.160156 314.023438 C 117.765625 313.859375 117.417969 313.625 117.117188 313.324219 C 116.816406 313.023438 116.582031 312.675781 116.417969 312.28125 C 116.253906 311.886719 116.171875 311.476562 116.171875 311.046875 L 116.171875 234.554688 C 116.171875 234.128906 116.253906 233.71875 116.417969 233.324219 C 116.582031 232.929688 116.816406 232.582031 117.117188 232.277344 C 117.417969 231.976562 117.765625 231.742188 118.160156 231.582031 C 118.554688 231.417969 118.964844 231.335938 119.390625 231.335938 C 119.820312 231.335938 120.230469 231.417969 120.625 231.582031 C 121.019531 231.742188 121.367188 231.976562 121.667969 232.277344 C 121.96875 232.582031 122.203125 232.929688 122.367188 233.324219 C 122.53125 233.71875 122.609375 234.128906 122.609375 234.554688 Z M 122.609375 234.554688 "/></g><g clip-rule="nonzero" clip-path="url(#2c100ab778)"><path style=" stroke:none;fill-rule:nonzero;fill:#ffffff;fill-opacity:1;" d="M 188.949219 248.671875 L 188.949219 311.046875 C 188.949219 311.476562 188.867188 311.886719 188.703125 312.28125 C 188.542969 312.675781 188.308594 313.023438 188.007812 313.324219 C 187.707031 313.625 187.355469 313.859375 186.960938 314.023438 C 186.570312 314.183594 186.15625 314.265625 185.730469 314.265625 C 185.304688 314.265625 184.894531 314.183594 184.5 314.023438 C 184.105469 313.859375 183.757812 313.625 183.453125 313.324219 C 183.152344 313.023438 182.921875 312.675781 182.757812 312.28125 C 182.59375 311.886719 182.511719 311.476562 182.511719 311.046875 L 182.511719 248.671875 C 182.511719 248.246094 182.59375 247.835938 182.757812 247.441406 C 182.921875 247.046875 183.152344 246.699219 183.453125 246.394531 C 183.757812 246.09375 184.105469 245.863281 184.5 245.699219 C 184.894531 245.535156 185.304688 245.453125 185.730469 245.453125 C 186.15625 245.453125 186.570312 245.535156 186.960938 245.699219 C 187.355469 245.863281 187.707031 246.09375 188.007812 246.394531 C 188.308594 246.699219 188.542969 247.046875 188.703125 247.441406 C 188.867188 247.835938 188.949219 248.246094 188.949219 248.671875 Z M 188.949219 248.671875 "/></g><g clip-rule="nonzero" clip-path="url(#0112fd0413)"><path style=" stroke:none;fill-rule:nonzero;fill:#ffffff;fill-opacity:1;" d="M 155.765625 215.242188 L 155.765625 311.046875 C 155.765625 311.476562 155.683594 311.886719 155.519531 312.28125 C 155.355469 312.675781 155.125 313.023438 154.820312 313.324219 C 154.519531 313.625 154.171875 313.859375 153.777344 314.023438 C 153.382812 314.183594 152.972656 314.265625 152.546875 314.265625 C 152.117188 314.265625 151.707031 314.183594 151.3125 314.023438 C 150.917969 313.859375 150.570312 313.625 150.269531 313.324219 C 149.96875 313.023438 149.734375 312.675781 149.570312 312.28125 C 149.410156 311.886719 149.328125 311.476562 149.328125 311.046875 L 149.328125 215.242188 C 149.328125 214.816406 149.410156 214.40625 149.570312 214.011719 C 149.734375 213.617188 149.96875 213.269531 150.269531 212.964844 C 150.570312 212.664062 150.917969 212.429688 151.3125 212.269531 C 151.707031 212.105469 152.117188 212.023438 152.546875 212.023438 C 152.972656 212.023438 153.382812 212.105469 153.777344 212.269531 C 154.171875 212.429688 154.519531 212.664062 154.820312 212.964844 C 155.125 213.269531 155.355469 213.617188 155.519531 214.011719 C 155.683594 214.40625 155.765625 214.816406 155.765625 215.242188 Z M 155.765625 215.242188 "/></g><g clip-rule="nonzero" clip-path="url(#89b17c3414)"><path style=" stroke:none;fill-rule:nonzero;fill:#ffffff;fill-opacity:1;" d="M 341.292969 84.191406 L 330.542969 151.785156 C 330.429688 152.453125 330.226562 153.09375 329.925781 153.699219 C 329.625 154.308594 329.242188 154.859375 328.777344 155.355469 C 328.3125 155.851562 327.789062 156.269531 327.199219 156.609375 C 326.613281 156.949219 325.988281 157.195312 325.328125 157.347656 C 324.667969 157.503906 323.996094 157.558594 323.320312 157.515625 C 322.644531 157.472656 321.988281 157.332031 321.351562 157.097656 C 320.714844 156.859375 320.128906 156.535156 319.589844 156.125 C 319.046875 155.710938 318.578125 155.230469 318.183594 154.679688 L 302.796875 133.117188 L 194.460938 211.332031 C 194.152344 211.550781 193.824219 211.742188 193.480469 211.90625 C 193.136719 212.066406 192.777344 212.195312 192.410156 212.289062 C 192.042969 212.382812 191.667969 212.445312 191.289062 212.472656 C 190.910156 212.496094 190.53125 212.488281 190.152344 212.441406 C 189.777344 212.398438 189.40625 212.320312 189.042969 212.207031 C 188.679688 212.09375 188.328125 211.949219 187.992188 211.773438 C 187.65625 211.59375 187.339844 211.386719 187.042969 211.152344 C 186.742188 210.914062 186.46875 210.652344 186.21875 210.367188 L 154.902344 173.414062 L 42.566406 258.710938 C 41.476562 259.550781 40.242188 259.96875 38.867188 259.964844 C 37.914062 259.972656 37.011719 259.757812 36.160156 259.324219 C 35.648438 259.074219 35.179688 258.757812 34.757812 258.375 C 34.332031 257.996094 33.972656 257.5625 33.667969 257.078125 C 33.367188 256.59375 33.136719 256.078125 32.980469 255.527344 C 32.824219 254.980469 32.75 254.421875 32.75 253.851562 L 32.75 213.554688 C 32.753906 212.589844 32.972656 211.675781 33.410156 210.816406 C 33.847656 209.953125 34.453125 209.238281 35.230469 208.664062 L 155.765625 118.679688 C 156.074219 118.449219 156.402344 118.25 156.75 118.082031 C 157.097656 117.914062 157.457031 117.777344 157.828125 117.679688 C 158.199219 117.578125 158.578125 117.511719 158.964844 117.484375 C 159.347656 117.453125 159.734375 117.460938 160.117188 117.503906 C 160.5 117.546875 160.875 117.625 161.242188 117.738281 C 161.613281 117.851562 161.96875 117.996094 162.308594 118.179688 C 162.648438 118.359375 162.96875 118.570312 163.273438 118.808594 C 163.574219 119.050781 163.851562 119.316406 164.101562 119.609375 L 195.417969 156.5625 L 274.859375 98.242188 L 256.671875 71.589844 C 256.289062 71.019531 255.996094 70.40625 255.792969 69.75 C 255.59375 69.089844 255.492188 68.417969 255.492188 67.730469 C 255.496094 67.042969 255.597656 66.371094 255.800781 65.714844 C 256.003906 65.058594 256.296875 64.445312 256.683594 63.878906 C 257.070312 63.308594 257.53125 62.808594 258.066406 62.378906 C 258.601562 61.949219 259.191406 61.609375 259.828125 61.355469 C 260.46875 61.101562 261.128906 60.945312 261.816406 60.890625 C 262.5 60.835938 263.179688 60.882812 263.851562 61.03125 L 336.59375 77.285156 C 336.96875 77.371094 337.332031 77.488281 337.683594 77.640625 C 338.035156 77.796875 338.371094 77.980469 338.691406 78.195312 C 339.007812 78.410156 339.300781 78.65625 339.574219 78.925781 C 339.84375 79.199219 340.089844 79.492188 340.304688 79.8125 C 340.523438 80.128906 340.707031 80.464844 340.859375 80.816406 C 341.011719 81.167969 341.132812 81.53125 341.214844 81.90625 C 341.300781 82.28125 341.347656 82.660156 341.363281 83.046875 C 341.375 83.429688 341.351562 83.8125 341.292969 84.191406 Z M 341.292969 84.191406 "/></g></g></svg>