<svg xmlns="http://www.w3.org/2000/svg" xmlns:xlink="http://www.w3.org/1999/xlink" width="500" zoomAndPan="magnify" viewBox="0 0 375 374.999991" height="500" preserveAspectRatio="xMidYMid meet" version="1.2"><g id="d94758146a"><path style=" stroke:none;fill-rule:nonzero;fill:#ffffff;fill-opacity:1;" d="M 285.859375 97.585938 C 284.109375 95.839844 282.3125 94.140625 280.464844 92.496094 C 278.621094 90.847656 276.730469 89.257812 274.792969 87.71875 C 272.855469 86.183594 270.875 84.703125 268.851562 83.277344 C 266.832031 81.851562 264.769531 80.488281 262.667969 79.183594 C 260.570312 77.875 258.433594 76.628906 256.261719 75.445312 C 254.089844 74.261719 251.886719 73.140625 249.652344 72.085938 C 247.414062 71.027344 245.152344 70.035156 242.859375 69.105469 C 240.566406 68.179688 238.25 67.316406 235.90625 66.523438 C 233.566406 65.726562 231.203125 65 228.820312 64.339844 C 226.4375 63.679688 224.035156 63.089844 221.617188 62.566406 C 219.199219 62.042969 216.769531 61.59375 214.328125 61.210938 C 211.882812 60.828125 209.429688 60.511719 206.96875 60.269531 C 204.507812 60.027344 202.042969 59.855469 199.570312 59.753906 C 197.101562 59.652344 194.628906 59.625 192.15625 59.664062 C 189.683594 59.703125 187.210938 59.816406 184.746094 59.996094 C 182.28125 60.179688 179.820312 60.429688 177.367188 60.753906 C 174.917969 61.078125 172.476562 61.46875 170.046875 61.929688 C 167.617188 62.394531 165.203125 62.925781 162.800781 63.527344 C 160.402344 64.128906 158.023438 64.796875 155.664062 65.535156 C 153.300781 66.269531 150.964844 67.074219 148.648438 67.945312 C 146.335938 68.816406 144.046875 69.753906 141.785156 70.753906 C 139.523438 71.757812 137.292969 72.824219 135.09375 73.953125 C 132.894531 75.082031 130.726562 76.273438 128.597656 77.527344 C 126.464844 78.78125 124.371094 80.097656 122.3125 81.472656 C 120.257812 82.84375 118.242188 84.277344 116.269531 85.765625 C 114.292969 87.253906 112.363281 88.800781 110.476562 90.398438 C 108.589844 92 106.753906 93.652344 104.960938 95.359375 C 103.167969 97.0625 101.429688 98.816406 99.738281 100.625 C 98.046875 102.429688 96.410156 104.28125 94.824219 106.179688 C 93.242188 108.078125 91.710938 110.019531 90.238281 112.007812 C 88.765625 113.992188 87.347656 116.019531 85.992188 118.085938 C 84.632812 120.15625 83.335938 122.257812 82.101562 124.402344 C 80.863281 126.542969 79.691406 128.71875 78.578125 130.929688 C 77.464844 133.136719 76.417969 135.375 75.433594 137.644531 C 74.449219 139.914062 73.53125 142.210938 72.679688 144.53125 C 71.828125 146.851562 71.042969 149.195312 70.324219 151.5625 C 69.605469 153.929688 68.957031 156.316406 68.375 158.71875 C 67.792969 161.125 67.28125 163.542969 66.839844 165.976562 C 66.394531 168.410156 66.023438 170.851562 65.71875 173.308594 C 65.417969 175.761719 65.183594 178.222656 65.023438 180.691406 C 64.859375 183.160156 64.769531 185.628906 64.75 188.101562 C 64.726562 190.574219 64.777344 193.046875 64.898438 195.515625 C 65.019531 197.988281 65.214844 200.453125 65.476562 202.910156 C 65.738281 205.371094 66.070312 207.820312 66.472656 210.261719 C 66.875 212.699219 67.347656 215.128906 67.890625 217.539062 C 68.429688 219.953125 69.042969 222.347656 69.722656 224.726562 C 70.398438 227.105469 71.144531 229.460938 71.960938 231.796875 C 72.773438 234.132812 73.652344 236.445312 74.601562 238.726562 C 75.546875 241.011719 76.558594 243.269531 77.632812 245.496094 C 78.707031 247.722656 79.847656 249.917969 81.046875 252.082031 C 82.25 254.242188 83.511719 256.367188 84.835938 258.457031 C 86.15625 260.546875 87.539062 262.597656 88.980469 264.605469 C 90.421875 266.617188 91.917969 268.585938 93.46875 270.511719 C 95.023438 272.433594 96.628906 274.3125 98.292969 276.144531 C 99.953125 277.976562 101.664062 279.761719 103.425781 281.496094 C 105.191406 283.230469 107 284.914062 108.859375 286.542969 C 110.71875 288.175781 112.625 289.75 114.574219 291.273438 C 116.523438 292.796875 118.515625 294.261719 120.550781 295.667969 C 122.582031 297.074219 124.65625 298.421875 126.765625 299.710938 C 128.875 301 131.023438 302.230469 133.203125 303.394531 C 135.382812 304.5625 137.597656 305.664062 139.839844 306.703125 C 142.085938 307.742188 144.359375 308.714844 146.65625 309.625 C 148.957031 310.535156 151.28125 311.375 153.628906 312.152344 C 155.980469 312.929688 158.347656 313.636719 160.734375 314.277344 C 163.125 314.917969 165.53125 315.488281 167.953125 315.992188 C 170.375 316.492188 172.808594 316.925781 175.253906 317.289062 C 177.699219 317.652344 180.15625 317.945312 182.617188 318.167969 C 185.082031 318.390625 187.550781 318.542969 190.019531 318.621094 C 192.492188 318.703125 194.964844 318.714844 197.4375 318.652344 C 199.910156 318.59375 202.378906 318.460938 204.84375 318.261719 C 207.308594 318.058594 209.765625 317.785156 212.214844 317.441406 C 214.664062 317.101562 217.101562 316.6875 219.527344 316.207031 C 221.953125 315.722656 224.363281 315.171875 226.757812 314.550781 C 229.152344 313.929688 231.527344 313.242188 233.878906 312.484375 C 236.234375 311.730469 238.566406 310.90625 240.875 310.015625 C 243.179688 309.125 245.460938 308.171875 247.714844 307.152344 C 249.96875 306.128906 252.1875 305.046875 254.378906 303.898438 C 256.570312 302.75 258.726562 301.539062 260.847656 300.269531 C 262.96875 299 265.050781 297.667969 267.097656 296.277344 C 269.144531 294.886719 271.148438 293.4375 273.109375 291.933594 C 275.070312 290.425781 276.988281 288.867188 278.863281 287.25 C 280.734375 285.636719 282.558594 283.96875 284.335938 282.25 C 286.113281 280.527344 287.839844 278.757812 289.515625 276.941406 C 291.191406 275.121094 292.816406 273.257812 294.382812 271.34375 C 295.953125 269.433594 297.464844 267.476562 298.921875 265.480469 C 300.378906 263.480469 301.78125 261.441406 303.121094 259.363281 C 304.460938 257.285156 305.738281 255.171875 306.960938 253.019531 C 308.179688 250.867188 309.335938 248.683594 310.429688 246.464844 C 311.523438 244.246094 312.550781 242 313.519531 239.722656 C 314.484375 237.445312 315.382812 235.140625 316.214844 232.8125 C 317.050781 230.484375 317.816406 228.132812 318.515625 225.761719 C 319.210938 223.390625 319.84375 221 320.40625 218.589844 C 320.964844 216.179688 321.457031 213.757812 321.882812 211.320312 C 322.304688 208.886719 322.65625 206.4375 322.941406 203.980469 C 323.222656 201.523438 323.4375 199.0625 323.578125 196.59375 C 323.71875 194.125 323.789062 191.652344 323.789062 189.179688 C 323.789062 184.9375 323.582031 180.703125 323.167969 176.484375 C 322.75 172.261719 322.128906 168.070312 321.304688 163.910156 C 320.476562 159.75 319.445312 155.636719 318.214844 151.578125 C 316.984375 147.519531 315.558594 143.53125 313.933594 139.609375 C 312.3125 135.691406 310.5 131.859375 308.5 128.121094 C 306.5 124.378906 304.324219 120.742188 301.964844 117.214844 C 299.609375 113.6875 297.085938 110.285156 294.394531 107.007812 C 291.703125 103.726562 288.859375 100.585938 285.859375 97.585938 Z M 156.335938 117.015625 L 167.4375 131.820312 L 152.636719 142.921875 L 268.28125 142.921875 L 268.28125 161.425781 L 152.636719 161.425781 L 167.4375 172.527344 L 156.335938 187.328125 L 109.429688 152.171875 Z M 232.199219 261.339844 L 221.097656 246.539062 L 235.898438 235.4375 L 129.503906 235.4375 L 129.503906 216.933594 L 235.898438 216.933594 L 221.097656 205.832031 L 232.199219 191.027344 L 279.105469 226.183594 Z M 232.199219 261.339844 "/></g></svg>