<svg xmlns="http://www.w3.org/2000/svg" xmlns:xlink="http://www.w3.org/1999/xlink" width="500" zoomAndPan="magnify" viewBox="0 0 375 374.999991" height="500" preserveAspectRatio="xMidYMid meet" version="1.2"><defs><clipPath id="ec0093ee0a"><path d="M 74 54.1875 L 337.5 54.1875 L 337.5 320 L 74 320 Z M 74 54.1875 "/></clipPath></defs><g id="6da052ba5d"><g clip-rule="nonzero" clip-path="url(#ec0093ee0a)"><path style=" stroke:none;fill-rule:evenodd;fill:#ffc44d;fill-opacity:1;" d="M 206.25 80.148438 C 147.414062 80.148438 99.714844 127.914062 99.714844 186.835938 C 99.714844 193.902344 93.992188 199.636719 86.933594 199.636719 C 79.871094 199.636719 74.148438 193.902344 74.148438 186.835938 C 74.148438 113.773438 133.292969 54.546875 206.25 54.546875 C 279.207031 54.546875 338.351562 113.773438 338.351562 186.835938 C 338.351562 259.894531 279.207031 319.121094 206.25 319.121094 C 158.183594 319.121094 116.125 293.402344 93.027344 255.019531 C 89.382812 248.964844 91.332031 241.097656 97.378906 237.449219 C 103.425781 233.800781 111.285156 235.75 114.925781 241.804688 C 133.589844 272.820312 167.511719 293.519531 206.25 293.519531 C 265.085938 293.519531 312.785156 245.753906 312.785156 186.835938 C 312.785156 127.914062 265.085938 80.148438 206.25 80.148438 Z M 206.25 80.148438 "/></g><path style=" stroke:none;fill-rule:evenodd;fill:#8b98a6;fill-opacity:1;" d="M 197.726562 122.824219 C 204.789062 122.824219 210.511719 128.554688 210.511719 135.625 L 210.511719 191.101562 L 265.910156 191.101562 C 272.96875 191.101562 278.691406 196.832031 278.691406 203.902344 C 278.691406 210.972656 272.96875 216.707031 265.910156 216.707031 L 197.726562 216.707031 C 190.667969 216.707031 184.941406 210.972656 184.941406 203.902344 L 184.941406 135.625 C 184.941406 128.554688 190.667969 122.824219 197.726562 122.824219 Z M 197.726562 122.824219 "/><path style=" stroke:none;fill-rule:evenodd;fill:#ffc44d;fill-opacity:1;" d="M 45.75 124.972656 C 51.625 121.050781 59.5625 122.640625 63.480469 128.523438 L 90.480469 169.082031 L 130.976562 142.042969 C 136.851562 138.121094 144.789062 139.710938 148.707031 145.59375 C 152.621094 151.476562 151.035156 159.425781 145.160156 163.347656 L 94.023438 197.484375 C 88.148438 201.40625 80.210938 199.820312 76.296875 193.933594 L 42.207031 142.726562 C 38.289062 136.84375 39.875 128.894531 45.75 124.972656 Z M 45.75 124.972656 "/></g></svg>