<svg xmlns="http://www.w3.org/2000/svg" xmlns:xlink="http://www.w3.org/1999/xlink" width="500" zoomAndPan="magnify" viewBox="0 0 375 374.999991" height="500" preserveAspectRatio="xMidYMid meet" version="1.2"><defs><clipPath id="a5eb806807"><path d="M 47.648438 55 L 168 55 L 168 176 L 47.648438 176 Z M 47.648438 55 "/></clipPath><clipPath id="3efe8b3463"><path d="M 106 265 L 147 265 L 147 325.796875 L 106 325.796875 Z M 106 265 "/></clipPath><clipPath id="6b7463349a"><path d="M 214 212 L 255 212 L 255 325.796875 L 214 325.796875 Z M 214 212 "/></clipPath><clipPath id="908743b680"><path d="M 250 109 L 327.398438 109 L 327.398438 325.796875 L 250 325.796875 Z M 250 109 "/></clipPath><clipPath id="baed607bd6"><path d="M 160 243 L 201 243 L 201 325.796875 L 160 325.796875 Z M 160 243 "/></clipPath><clipPath id="af76c29958"><path d="M 86 319 L 322 319 L 322 325.796875 L 86 325.796875 Z M 86 319 "/></clipPath><clipPath id="42a6b25d1c"><path d="M 72 49.046875 L 270 49.046875 L 270 253 L 72 253 Z M 72 49.046875 "/></clipPath></defs><g id="94acd5758c"><g clip-rule="nonzero" clip-path="url(#a5eb806807)"><path style=" stroke:none;fill-rule:evenodd;fill:#ffcb37;fill-opacity:1;" d="M 107.769531 175.6875 C 74.992188 175.6875 47.679688 148.394531 47.679688 115.644531 C 47.679688 82.347656 74.992188 55.597656 107.769531 55.597656 C 141.09375 55.597656 167.859375 82.347656 167.859375 115.644531 C 167.859375 148.394531 141.09375 175.6875 107.769531 175.6875 Z M 107.769531 175.6875 "/></g><path style=" stroke:none;fill-rule:evenodd;fill:#ff941f;fill-opacity:1;" d="M 107.769531 64.332031 C 79.910156 64.332031 56.964844 87.257812 56.964844 115.644531 C 56.964844 143.480469 79.910156 166.410156 107.769531 166.410156 C 136.175781 166.410156 159.117188 143.480469 159.117188 115.644531 C 159.117188 87.257812 136.175781 64.332031 107.769531 64.332031 Z M 107.769531 64.332031 "/><path style=" stroke:none;fill-rule:evenodd;fill:#f9d987;fill-opacity:1;" d="M 107.769531 150.03125 C 96.84375 150.03125 88.105469 141.296875 88.105469 130.382812 C 88.105469 128.199219 90.289062 126.015625 93.019531 126.015625 C 95.207031 126.015625 97.390625 128.199219 97.390625 130.382812 C 97.390625 136.386719 102.308594 140.753906 107.769531 140.753906 C 113.777344 140.753906 118.148438 136.386719 118.148438 130.382812 C 118.148438 124.378906 113.777344 120.011719 107.769531 120.011719 C 96.84375 120.011719 88.105469 111.277344 88.105469 100.359375 C 88.105469 89.441406 96.84375 80.707031 107.769531 80.707031 C 118.695312 80.707031 127.433594 89.441406 127.433594 100.359375 C 127.433594 103.089844 125.25 104.726562 123.066406 104.726562 C 120.332031 104.726562 118.148438 103.089844 118.148438 100.359375 C 118.148438 94.355469 113.777344 89.988281 107.769531 89.988281 C 102.308594 89.988281 97.390625 94.355469 97.390625 100.359375 C 97.390625 106.363281 102.308594 110.730469 107.769531 110.730469 C 118.695312 110.730469 127.433594 119.464844 127.433594 130.382812 C 127.433594 141.296875 118.695312 150.03125 107.769531 150.03125 Z M 107.769531 150.03125 "/><path style=" stroke:none;fill-rule:evenodd;fill:#f9d987;fill-opacity:1;" d="M 107.769531 154.398438 C 105.585938 154.398438 103.398438 152.761719 103.398438 150.03125 L 103.398438 80.707031 C 103.398438 78.523438 105.585938 76.339844 107.769531 76.339844 C 110.5 76.339844 112.140625 78.523438 112.140625 80.707031 L 112.140625 150.03125 C 112.140625 152.761719 110.5 154.398438 107.769531 154.398438 Z M 107.769531 154.398438 "/><g clip-rule="nonzero" clip-path="url(#3efe8b3463)"><path style=" stroke:none;fill-rule:evenodd;fill:#df5a49;fill-opacity:1;" d="M 142.730469 325.796875 L 109.410156 325.796875 C 107.769531 325.796875 106.128906 324.707031 106.128906 322.523438 L 106.128906 269.03125 C 106.128906 267.390625 107.769531 265.753906 109.410156 265.753906 L 142.730469 265.753906 C 144.371094 265.753906 146.007812 267.390625 146.007812 269.03125 L 146.007812 322.523438 C 146.007812 324.707031 144.371094 325.796875 142.730469 325.796875 Z M 142.730469 325.796875 "/></g><g clip-rule="nonzero" clip-path="url(#6b7463349a)"><path style=" stroke:none;fill-rule:evenodd;fill:#df5a49;fill-opacity:1;" d="M 251.4375 325.796875 L 218.117188 325.796875 C 215.929688 325.796875 214.839844 324.707031 214.839844 322.523438 L 214.839844 215.535156 C 214.839844 213.898438 215.929688 212.261719 218.117188 212.261719 L 251.4375 212.261719 C 253.078125 212.261719 254.71875 213.898438 254.71875 215.535156 L 254.71875 322.523438 C 254.71875 324.707031 253.078125 325.796875 251.4375 325.796875 Z M 251.4375 325.796875 "/></g><g clip-rule="nonzero" clip-path="url(#908743b680)"><path style=" stroke:none;fill-rule:evenodd;fill:#7ed63f;fill-opacity:1;" d="M 305.519531 325.796875 L 272.199219 325.796875 C 270.558594 325.796875 268.921875 324.707031 268.921875 322.523438 L 268.921875 168.589844 L 253.625 168.589844 C 252.53125 168.589844 251.4375 168.046875 250.894531 166.953125 C 250.347656 165.863281 250.347656 164.769531 250.894531 163.679688 L 285.308594 111.277344 C 285.855469 110.183594 286.945312 109.640625 288.039062 109.640625 C 289.132812 109.640625 290.226562 110.183594 290.769531 111.277344 L 326.277344 163.132812 C 326.824219 163.679688 327.371094 164.769531 327.371094 165.316406 C 327.371094 166.953125 325.730469 168.589844 324.09375 168.589844 L 308.796875 168.589844 L 308.796875 322.523438 C 308.796875 324.707031 307.160156 325.796875 305.519531 325.796875 Z M 305.519531 325.796875 "/></g><g clip-rule="nonzero" clip-path="url(#baed607bd6)"><path style=" stroke:none;fill-rule:evenodd;fill:#7ed63f;fill-opacity:1;" d="M 196.8125 325.796875 L 163.488281 325.796875 C 161.851562 325.796875 160.210938 324.707031 160.210938 322.523438 L 160.210938 247.195312 C 160.210938 245.558594 161.851562 243.921875 163.488281 243.921875 L 196.8125 243.921875 C 198.996094 243.921875 200.089844 245.558594 200.089844 247.195312 L 200.089844 322.523438 C 200.089844 324.707031 198.996094 325.796875 196.8125 325.796875 Z M 196.8125 325.796875 "/></g><g clip-rule="nonzero" clip-path="url(#af76c29958)"><path style=" stroke:none;fill-rule:evenodd;fill:#4d4d4d;fill-opacity:1;" d="M 318.628906 325.796875 L 89.742188 325.796875 C 88.105469 325.796875 86.464844 324.707031 86.464844 322.523438 C 86.464844 320.886719 88.105469 319.25 89.742188 319.25 L 318.628906 319.25 C 320.269531 319.25 321.910156 320.886719 321.910156 322.523438 C 321.910156 324.707031 320.269531 325.796875 318.628906 325.796875 Z M 318.628906 325.796875 "/></g><g clip-rule="nonzero" clip-path="url(#42a6b25d1c)"><path style=" stroke:none;fill-rule:evenodd;fill:#f8a805;fill-opacity:1;" d="M 87.011719 252.109375 C 79.910156 252.109375 73.902344 247.195312 72.808594 240.644531 C 72.261719 234.640625 75.539062 227.542969 84.28125 224.816406 C 90.289062 223.175781 96.84375 220.449219 101.761719 218.265625 C 102.851562 217.71875 104.492188 217.171875 106.128906 216.082031 C 118.148438 210.621094 130.167969 202.980469 141.636719 195.339844 C 174.960938 170.773438 199.542969 139.660156 214.292969 103.089844 C 217.023438 96.539062 219.210938 89.441406 220.847656 82.890625 L 221.394531 81.253906 L 203.367188 73.613281 C 202.273438 73.066406 201.183594 71.976562 201.183594 70.335938 C 201.183594 69.246094 202.273438 68.152344 203.367188 67.609375 L 246.523438 49.59375 C 248.707031 49.046875 250.347656 49.59375 250.894531 51.230469 L 268.921875 94.902344 C 269.464844 95.992188 268.921875 97.628906 268.375 98.175781 C 267.28125 99.269531 265.640625 99.8125 264.550781 99.269531 L 247.070312 91.625 C 239.421875 117.28125 227.949219 140.753906 213.199219 162.042969 C 197.90625 182.785156 178.785156 201.890625 156.933594 217.71875 C 142.730469 228.089844 127.433594 236.824219 112.140625 243.375 C 106.675781 246.105469 99.574219 249.378906 92.472656 251.015625 C 90.289062 251.5625 88.648438 252.109375 87.011719 252.109375 Z M 87.011719 252.109375 "/></g></g></svg>