<svg xmlns="http://www.w3.org/2000/svg" xmlns:xlink="http://www.w3.org/1999/xlink" width="500" zoomAndPan="magnify" viewBox="0 0 375 374.999991" height="500" preserveAspectRatio="xMidYMid meet" version="1.2"><defs><clipPath id="f5e72d8b66"><path d="M 37.5 257 L 83 257 L 83 337 L 37.5 337 Z M 37.5 257 "/></clipPath><clipPath id="1fbeb3436d"><path d="M 37.5 63 L 232 63 L 232 168 L 37.5 168 Z M 37.5 63 "/></clipPath><clipPath id="840e84cbd6"><path d="M 37.5 63 L 65 63 L 65 91 L 37.5 91 Z M 37.5 63 "/></clipPath><clipPath id="e8c8226fbf"><path d="M 37.5 140 L 65 140 L 65 168 L 37.5 168 Z M 37.5 140 "/></clipPath></defs><g id="e8b94303ca"><g clip-rule="nonzero" clip-path="url(#f5e72d8b66)"><path style=" stroke:none;fill-rule:nonzero;fill:#68a4d4;fill-opacity:1;" d="M 42.46875 257.035156 L 77.210938 257.035156 C 79.953125 257.035156 82.175781 259.261719 82.175781 262.003906 L 82.175781 331.539062 C 82.175781 334.28125 79.953125 336.507812 77.210938 336.507812 L 42.46875 336.507812 C 39.726562 336.507812 37.5 334.28125 37.5 331.539062 L 37.5 262.003906 C 37.5 259.261719 39.726562 257.035156 42.46875 257.035156 "/></g><path style=" stroke:none;fill-rule:nonzero;fill:#ffc6a0;fill-opacity:1;" d="M 180.96875 247.257812 C 163.585938 247.285156 145.402344 247.386719 131.714844 247.359375 C 121.910156 247.359375 102.019531 262.003906 92.085938 262.003906 L 82.148438 262.003906 C 82.203125 285.15625 82.175781 308.335938 82.148438 331.539062 L 92.085938 331.539062 C 97.308594 331.539062 146.746094 336.507812 161.621094 336.507812 C 186.453125 336.507812 266.390625 270.695312 266.390625 270.695312 C 271.589844 266.21875 274.308594 260.710938 272.238281 254.164062 C 270.195312 247.59375 262.613281 246.273438 255.992188 248.136719 L 191.421875 266.347656 C 192.636719 264.410156 193.386719 262.132812 193.386719 259.648438 C 193.386719 252.769531 187.851562 247.230469 180.96875 247.257812 "/><path style=" stroke:none;fill-rule:nonzero;fill:#ffaf7a;fill-opacity:1;" d="M 92.109375 262.003906 L 82.203125 262.003906 C 82.203125 285.183594 82.203125 308.359375 82.203125 331.539062 L 92.109375 331.539062 L 92.109375 262.003906 "/><path style=" stroke:none;fill-rule:nonzero;fill:#ffaf7a;fill-opacity:1;" d="M 264.371094 260.761719 C 264.371094 260.761719 184.488281 326.574219 159.65625 326.574219 C 144.753906 326.574219 95.316406 321.605469 90.117188 321.605469 L 82.175781 321.605469 L 82.148438 331.539062 L 92.085938 331.539062 C 97.308594 331.539062 146.746094 336.507812 161.621094 336.507812 C 186.453125 336.507812 266.390625 270.695312 266.390625 270.695312 C 271.589844 266.21875 274.308594 260.710938 272.238281 254.164062 C 271.875 253 271.304688 252.070312 270.660156 251.242188 C 269.882812 254.8125 267.605469 257.992188 264.371094 260.761719 "/><path style=" stroke:none;fill-rule:nonzero;fill:#ffaf7a;fill-opacity:1;" d="M 176.574219 262.105469 C 161.671875 262.105469 146.773438 262.003906 141.804688 262.003906 C 139.0625 262.003906 136.835938 264.226562 136.835938 266.96875 C 136.835938 269.710938 139.0625 271.9375 141.804688 271.9375 C 146.773438 271.9375 166.328125 272.039062 180.96875 272.039062 C 187.851562 272.039062 193.386719 266.503906 193.386719 259.648438 C 193.386719 255.820312 191.65625 252.457031 188.9375 250.179688 C 188.679688 256.828125 183.300781 262.105469 176.574219 262.105469 "/><path style=" stroke:none;fill-rule:nonzero;fill:#ffc6a0;fill-opacity:1;" d="M 185.964844 47.03125 C 178.617188 52.566406 172.175781 58 166.40625 63.328125 L 166.640625 113.023438 L 202.777344 113.023438 C 201.925781 114.472656 201.40625 116.152344 201.40625 117.988281 C 201.40625 123.472656 205.832031 127.921875 211.339844 127.921875 L 251.074219 127.921875 C 256.042969 127.921875 280.878906 117.988281 285.84375 117.988281 L 290.8125 117.988281 L 290.8125 48.867188 L 211.339844 38.753906 C 210.175781 38.597656 209.066406 38.519531 207.953125 38.492188 C 200.269531 38.339844 193.75 41.15625 185.964844 47.03125 "/><path style=" stroke:none;fill-rule:nonzero;fill:#ffaf7a;fill-opacity:1;" d="M 177.917969 53.417969 C 173.832031 56.757812 169.925781 60.066406 166.40625 63.328125 L 166.640625 113.023438 L 202.777344 113.023438 C 201.925781 114.472656 201.40625 116.152344 201.40625 117.988281 C 201.40625 123.472656 205.832031 127.921875 211.339844 127.921875 L 241.140625 127.921875 C 241.140625 106.398438 241.140625 84.875 241.140625 63.355469 C 241.140625 57.84375 236.71875 53.417969 231.207031 53.417969 L 177.917969 53.417969 "/><g clip-rule="nonzero" clip-path="url(#1fbeb3436d)"><path style=" stroke:none;fill-rule:nonzero;fill:#68a4d4;fill-opacity:1;" d="M 231.207031 157.722656 C 231.207031 163.207031 226.785156 167.660156 221.273438 167.660156 L 47.433594 167.660156 C 41.921875 167.660156 37.5 163.207031 37.5 157.722656 L 37.5 73.289062 C 37.5 67.777344 41.921875 63.355469 47.433594 63.355469 L 221.273438 63.355469 C 226.785156 63.355469 231.207031 67.777344 231.207031 73.289062 L 231.207031 157.722656 "/></g><path style=" stroke:none;fill-rule:nonzero;fill:#4992cb;fill-opacity:1;" d="M 166.640625 113.023438 C 166.640625 129.476562 153.289062 142.824219 136.835938 142.824219 C 120.386719 142.824219 107.035156 129.476562 107.035156 113.023438 C 107.035156 96.542969 120.386719 83.222656 136.835938 83.222656 C 153.289062 83.222656 166.640625 96.542969 166.640625 113.023438 "/><path style=" stroke:none;fill-rule:nonzero;fill:#4992cb;fill-opacity:1;" d="M 211.339844 63.355469 C 216.851562 63.355469 221.273438 67.777344 221.273438 73.289062 L 221.273438 157.722656 C 221.273438 163.207031 216.851562 167.660156 211.339844 167.660156 L 221.273438 167.660156 C 226.785156 167.660156 231.207031 163.207031 231.207031 157.722656 L 231.207031 73.289062 C 231.207031 67.777344 226.785156 63.355469 221.273438 63.355469 L 211.339844 63.355469 "/><path style=" stroke:none;fill-rule:nonzero;fill:#ffc6a0;fill-opacity:1;" d="M 290.8125 117.988281 L 285.84375 117.988281 C 280.878906 117.988281 256.042969 127.921875 251.074219 127.921875 L 211.339844 127.921875 C 205.832031 127.921875 201.40625 123.472656 201.40625 117.988281 C 201.40625 112.480469 205.832031 108.054688 211.339844 108.054688 C 237.832031 108.054688 264.320312 108.054688 290.8125 108.054688 L 290.8125 117.988281 "/><path style=" stroke:none;fill-rule:nonzero;fill:#ffaf7a;fill-opacity:1;" d="M 280.878906 47.597656 L 280.878906 119.023438 C 283.023438 118.429688 284.886719 117.988281 285.84375 117.988281 L 290.8125 117.988281 L 290.8125 48.867188 L 280.878906 47.597656 "/><path style=" stroke:none;fill-rule:nonzero;fill:#ffaf7a;fill-opacity:1;" d="M 285.84375 108.054688 C 280.878906 108.054688 256.042969 117.988281 251.074219 117.988281 L 211.339844 117.988281 C 207.667969 117.988281 204.484375 115.972656 202.777344 113.023438 C 201.925781 114.472656 201.40625 116.152344 201.40625 117.988281 C 201.40625 123.472656 205.832031 127.921875 211.339844 127.921875 L 251.074219 127.921875 C 256.042969 127.921875 280.878906 117.988281 285.84375 117.988281 L 290.8125 117.988281 L 290.8125 108.054688 L 285.84375 108.054688 "/><g clip-rule="nonzero" clip-path="url(#840e84cbd6)"><path style=" stroke:none;fill-rule:nonzero;fill:#e4eff8;fill-opacity:1;" d="M 37.5 90.671875 C 52.582031 90.671875 64.816406 78.433594 64.816406 63.355469 L 47.433594 63.355469 C 41.921875 63.355469 37.5 67.777344 37.5 73.289062 L 37.5 90.671875 "/></g><path style=" stroke:none;fill-rule:nonzero;fill:#e4eff8;fill-opacity:1;" d="M 231.207031 90.671875 C 216.125 90.671875 203.890625 78.433594 203.890625 63.355469 L 221.273438 63.355469 C 226.785156 63.355469 231.207031 67.777344 231.207031 73.289062 L 231.207031 90.671875 "/><path style=" stroke:none;fill-rule:nonzero;fill:#e4eff8;fill-opacity:1;" d="M 231.207031 140.339844 C 216.125 140.339844 203.890625 152.550781 203.890625 167.660156 L 221.273438 167.660156 C 226.785156 167.660156 231.207031 163.207031 231.207031 157.722656 L 231.207031 140.339844 "/><path style=" stroke:none;fill-rule:nonzero;fill:#c4dcf0;fill-opacity:1;" d="M 211.339844 167.660156 C 216.851562 167.660156 221.273438 163.207031 221.273438 157.722656 L 221.273438 142.230469 C 224.429688 140.988281 227.792969 140.339844 231.207031 140.339844 L 231.207031 157.722656 C 231.207031 163.207031 226.785156 167.660156 221.273438 167.660156 L 211.339844 167.660156 "/><g clip-rule="nonzero" clip-path="url(#e8c8226fbf)"><path style=" stroke:none;fill-rule:nonzero;fill:#e4eff8;fill-opacity:1;" d="M 37.5 140.339844 C 52.582031 140.339844 64.816406 152.550781 64.816406 167.660156 L 47.433594 167.660156 C 41.921875 167.660156 37.5 163.207031 37.5 157.722656 L 37.5 140.339844 "/></g><path style=" stroke:none;fill-rule:nonzero;fill:#c4dcf0;fill-opacity:1;" d="M 211.339844 63.355469 C 216.851562 63.355469 221.273438 67.777344 221.273438 73.289062 L 221.273438 88.757812 C 224.429688 90 227.792969 90.644531 231.207031 90.671875 L 231.207031 73.289062 C 231.207031 67.777344 226.785156 63.355469 221.273438 63.355469 L 211.339844 63.355469 "/><path style=" stroke:none;fill-rule:nonzero;fill:#e4eff8;fill-opacity:1;" d="M 156.707031 113.023438 C 156.707031 126.734375 145.582031 137.855469 131.871094 137.855469 C 118.160156 137.855469 107.035156 126.734375 107.035156 113.023438 C 107.035156 99.285156 118.160156 88.1875 131.871094 88.1875 C 145.582031 88.1875 156.707031 99.285156 156.707031 113.023438 "/><path style=" stroke:none;fill-rule:nonzero;fill:#c4dcf0;fill-opacity:1;" d="M 126.957031 88.707031 C 138.492188 91.085938 146.773438 101.226562 146.773438 113.023438 C 146.746094 124.820312 138.441406 134.984375 126.851562 137.339844 C 128.507812 137.675781 130.1875 137.855469 131.871094 137.855469 C 145.582031 137.855469 156.707031 126.734375 156.707031 113.023438 C 156.707031 99.285156 145.582031 88.1875 131.871094 88.1875 C 130.214844 88.1875 128.558594 88.371094 126.957031 88.707031 "/><path style=" stroke:none;fill-rule:nonzero;fill:#ffca28;fill-opacity:1;" d="M 310.628906 167.660156 C 309.074219 167.660156 307.625 168.410156 306.695312 169.625 C 305.066406 171.824219 305.503906 174.925781 307.679688 176.558594 L 315.671875 182.585938 L 261.011719 182.585938 C 258.269531 182.558594 256.042969 184.785156 256.015625 187.527344 C 256.042969 190.269531 258.269531 192.492188 261.011719 192.46875 L 330.519531 192.46875 C 335.253906 192.441406 337.273438 186.4375 333.519531 183.566406 L 313.652344 168.640625 C 312.800781 167.996094 311.714844 167.632812 310.628906 167.660156 "/><path style=" stroke:none;fill-rule:nonzero;fill:#ffca28;fill-opacity:1;" d="M 261.085938 202.402344 C 256.300781 202.402344 254.285156 208.480469 258.113281 211.351562 L 277.980469 226.277344 C 280.152344 227.882812 283.257812 227.441406 284.914062 225.269531 C 286.542969 223.070312 286.101562 219.964844 283.902344 218.308594 L 275.960938 212.335938 L 330.546875 212.335938 C 333.289062 212.335938 335.488281 210.109375 335.511719 207.394531 C 335.511719 204.652344 333.289062 202.402344 330.546875 202.402344 L 261.085938 202.402344 "/><path style=" stroke:none;fill-rule:nonzero;fill:#e4eff8;fill-opacity:1;" d="M 52.402344 316.640625 C 49.660156 316.640625 47.433594 318.863281 47.433594 321.605469 C 47.433594 324.347656 49.660156 326.574219 52.402344 326.574219 C 55.144531 326.574219 57.367188 324.347656 57.367188 321.605469 C 57.367188 318.863281 55.144531 316.640625 52.402344 316.640625 "/><path style=" stroke:none;fill-rule:nonzero;fill:#4992cb;fill-opacity:1;" d="M 72.214844 257.035156 L 72.214844 336.507812 L 77.210938 336.507812 C 79.953125 336.507812 82.148438 334.28125 82.148438 331.539062 L 82.148438 262.003906 C 82.148438 259.261719 79.953125 257.035156 77.210938 257.035156 L 72.214844 257.035156 "/><path style=" stroke:none;fill-rule:nonzero;fill:#68a4d4;fill-opacity:1;" d="M 295.804688 43.484375 L 330.546875 43.484375 C 333.289062 43.484375 335.511719 45.683594 335.511719 48.453125 L 335.511719 117.988281 C 335.511719 120.730469 333.289062 122.957031 330.546875 122.957031 L 295.804688 122.957031 C 293.0625 122.957031 290.835938 120.730469 290.835938 117.988281 L 290.835938 48.453125 C 290.835938 45.683594 293.0625 43.484375 295.804688 43.484375 "/><path style=" stroke:none;fill-rule:nonzero;fill:#e4eff8;fill-opacity:1;" d="M 305.738281 103.089844 C 302.996094 103.089844 300.769531 105.3125 300.769531 108.054688 C 300.769531 110.796875 302.996094 113.023438 305.738281 113.023438 C 308.480469 113.023438 310.703125 110.796875 310.703125 108.054688 C 310.703125 105.3125 308.480469 103.089844 305.738281 103.089844 "/><path style=" stroke:none;fill-rule:nonzero;fill:#4992cb;fill-opacity:1;" d="M 325.578125 43.484375 L 325.578125 122.957031 L 330.546875 122.957031 C 333.289062 122.957031 335.511719 120.730469 335.511719 117.988281 L 335.511719 48.453125 C 335.511719 45.683594 333.289062 43.484375 330.546875 43.484375 L 325.578125 43.484375 "/><path style=" stroke:none;fill-rule:nonzero;fill:#ecb200;fill-opacity:1;" d="M 310.628906 167.632812 C 309.746094 167.660156 308.917969 167.917969 308.195312 168.332031 C 308.375 168.433594 308.582031 168.511719 308.765625 168.640625 L 328.632812 183.566406 C 332.382812 186.4375 330.339844 192.441406 325.605469 192.46875 L 330.519531 192.46875 C 335.253906 192.441406 337.296875 186.4375 333.519531 183.566406 L 313.652344 168.640625 C 312.800781 167.96875 311.714844 167.632812 310.628906 167.632812 "/><path style=" stroke:none;fill-rule:nonzero;fill:#ecb200;fill-opacity:1;" d="M 325.578125 202.402344 C 328.320312 202.402344 330.546875 204.652344 330.546875 207.394531 C 330.519531 210.109375 328.296875 212.335938 325.578125 212.335938 L 330.546875 212.335938 C 333.289062 212.335938 335.488281 210.109375 335.511719 207.394531 C 335.511719 204.652344 333.289062 202.402344 330.546875 202.402344 L 325.578125 202.402344 "/><path style=" stroke:none;fill-rule:nonzero;fill:#ecb200;fill-opacity:1;" d="M 270.996094 212.335938 L 278.9375 218.308594 C 281.136719 219.964844 281.574219 223.070312 279.921875 225.269531 C 279.53125 225.785156 279.039062 226.199219 278.523438 226.535156 C 280.671875 227.726562 283.386719 227.285156 284.914062 225.269531 C 286.542969 223.070312 286.101562 219.964844 283.902344 218.308594 L 275.960938 212.335938 L 270.996094 212.335938 "/></g></svg>