<svg xmlns="http://www.w3.org/2000/svg" xmlns:xlink="http://www.w3.org/1999/xlink" width="500" zoomAndPan="magnify" viewBox="0 0 375 374.999991" height="500" preserveAspectRatio="xMidYMid meet" version="1.2"><defs><clipPath id="fffc82aefc"><path d="M 0 235 L 375 235 L 375 372.609375 L 0 372.609375 Z M 0 235 "/></clipPath></defs><g id="c527d1e73f"><path style=" stroke:none;fill-rule:nonzero;fill:#ffffff;fill-opacity:1;" d="M 109.199219 105.238281 C 106.015625 108.875 105.738281 113.675781 106.242188 118.300781 C 107.253906 127.601562 108.972656 136.570312 113.898438 144.984375 C 116.652344 149.683594 116.855469 155.851562 118.878906 161.15625 C 126.433594 180.992188 137.601562 198.273438 155.414062 210.355469 C 178.15625 225.765625 200.644531 224.882812 222.375 208.027344 C 242.011719 192.792969 254.542969 173.007812 259.519531 148.546875 C 259.949219 146.398438 260.707031 144.503906 261.972656 142.632812 C 265.710938 137.074219 266.671875 130.554688 267.835938 124.136719 C 268.515625 120.347656 269.121094 116.507812 268.792969 112.617188 C 268.566406 110.039062 268.339844 107.207031 266.496094 105.515625 C 263.96875 103.214844 264.550781 100.96875 265.207031 98.3125 C 267.355469 89.847656 268.3125 81.257812 268.464844 72.515625 C 268.84375 46.96875 246.28125 13.234375 215.832031 5.476562 C 202.894531 2.167969 189.90625 2.394531 177.144531 5.78125 C 161.480469 9.949219 146.191406 15.308594 132.675781 24.582031 C 115.59375 36.332031 105.535156 52.074219 105.839844 77.140625 C 105.761719 82.269531 107.988281 90.65625 110.363281 99.046875 C 110.992188 101.421875 111.070312 103.089844 109.199219 105.238281 Z M 109.199219 105.238281 "/><g clip-rule="nonzero" clip-path="url(#fffc82aefc)"><path style=" stroke:none;fill-rule:nonzero;fill:#ffffff;fill-opacity:1;" d="M 373.027344 309.65625 C 369.386719 293.460938 364.738281 277.71875 348.492188 269.078125 C 348.261719 268.949219 347.429688 268.445312 347.226562 268.34375 C 338.308594 262.761719 328.757812 258.566406 318.902344 255.105469 C 308.136719 251.136719 269.730469 239.917969 255.984375 235.898438 C 253.355469 235.140625 250.753906 237.265625 251.054688 239.992188 C 251.054688 240.019531 251.054688 240.019531 251.054688 240.042969 C 252.570312 252.652344 251.082031 264.65625 246.457031 276.152344 C 245.394531 278.601562 244.285156 281.027344 243.121094 283.402344 C 232.105469 304.375 200.242188 335.53125 190.335938 344.402344 C 188.644531 345.917969 186.117188 345.917969 184.421875 344.402344 C 174.519531 335.53125 142.628906 304.375 131.636719 283.429688 C 130.476562 281.027344 129.363281 278.628906 128.300781 276.152344 C 123.679688 264.628906 122.164062 252.652344 123.703125 240.042969 L 123.703125 239.992188 C 124.007812 237.289062 121.453125 235.140625 118.828125 235.925781 C 117.160156 236.429688 115.515625 236.910156 113.847656 237.414062 C 107.582031 239.285156 101.339844 241.128906 95.125 243 C 81.933594 246.765625 68.667969 250.402344 55.808594 255.152344 C 45.976562 258.617188 36.453125 262.808594 27.53125 268.371094 C 27.40625 268.445312 27.253906 268.546875 27.128906 268.621094 C 26.902344 268.75 26.523438 268.976562 26.292969 269.101562 C 10.019531 277.742188 5.371094 293.484375 1.734375 309.683594 C -1.550781 324.363281 -2.132812 339.222656 -2.109375 354.230469 C -2.109375 354.710938 -2.109375 355.214844 -2.109375 355.695312 C -2.082031 365.046875 5.550781 372.601562 14.898438 372.601562 L 359.9375 372.601562 C 369.234375 372.601562 376.816406 365.121094 376.917969 355.824219 C 376.917969 355.824219 376.917969 355.796875 376.917969 355.796875 C 376.941406 340.234375 376.4375 324.84375 373.027344 309.65625 Z M 373.027344 309.65625 "/></g><path style=" stroke:none;fill-rule:nonzero;fill:#ffffff;fill-opacity:1;" d="M 197.6875 262.128906 C 201.984375 259.222656 205.269531 255.152344 208.125 250.730469 C 209.210938 249.066406 209.566406 247.347656 208.277344 245.679688 C 206.332031 243.203125 204.234375 240.601562 201.582031 238.832031 C 198.675781 236.808594 195.667969 236.078125 190.816406 235.796875 C 190.664062 235.796875 184.09375 235.773438 183.917969 235.796875 C 179.800781 236.078125 177.171875 236.429688 174.214844 238.148438 C 171.105469 239.96875 168.65625 242.875 166.484375 245.679688 C 165.195312 247.320312 165.546875 249.066406 166.609375 250.730469 C 169.4375 255.152344 172.75 259.222656 177.046875 262.128906 C 180.28125 264.328125 180.078125 266.324219 178.738281 269.457031 C 175 278.300781 167.972656 296.292969 166.105469 301.015625 C 165.824219 301.722656 165.976562 302.53125 166.507812 303.089844 C 169.566406 306.347656 180.152344 317.515625 185.964844 323.277344 C 186.746094 324.035156 187.960938 324.035156 188.746094 323.277344 C 194.582031 317.515625 205.144531 306.324219 208.199219 303.089844 C 208.730469 302.53125 208.882812 301.722656 208.605469 301.015625 C 206.761719 296.292969 199.710938 278.300781 195.972656 269.457031 C 194.65625 266.324219 194.453125 264.328125 197.6875 262.128906 Z M 197.6875 262.128906 "/></g></svg>