<svg xmlns="http://www.w3.org/2000/svg" xmlns:xlink="http://www.w3.org/1999/xlink" width="500" zoomAndPan="magnify" viewBox="0 0 375 374.999991" height="500" preserveAspectRatio="xMidYMid meet" version="1.2"><defs><clipPath id="ed375df802"><path d="M 12.863281 12.863281 L 362.363281 12.863281 L 362.363281 362.363281 L 12.863281 362.363281 Z M 12.863281 12.863281 "/></clipPath></defs><g id="e1741759d0"><g clip-rule="nonzero" clip-path="url(#ed375df802)"><path style=" stroke:none;fill-rule:nonzero;fill:#ffffff;fill-opacity:1;" d="M 320.914062 121.132812 L 338.027344 90.980469 L 284.007812 36.960938 L 253.855469 54.074219 C 247.800781 50.933594 241.398438 48.371094 234.878906 46.160156 L 225.679688 12.863281 L 149.308594 12.863281 L 140.109375 46.160156 C 133.589844 48.371094 127.1875 50.933594 121.132812 54.074219 L 90.980469 36.960938 L 36.960938 90.980469 L 54.074219 121.132812 C 50.933594 127.1875 48.371094 133.589844 46.160156 140.109375 L 12.863281 149.308594 L 12.863281 225.679688 L 46.160156 234.878906 C 48.371094 241.398438 50.933594 247.800781 54.074219 253.855469 L 36.960938 284.007812 L 90.980469 338.027344 L 121.132812 320.914062 C 127.1875 324.058594 133.589844 326.617188 140.109375 328.832031 L 149.308594 362.128906 L 225.679688 362.128906 L 234.878906 328.832031 C 241.398438 326.617188 247.800781 324.058594 253.855469 320.914062 L 284.007812 338.027344 L 338.027344 284.007812 L 320.914062 253.855469 C 324.058594 247.800781 326.617188 241.398438 328.832031 234.878906 L 362.128906 225.679688 L 362.128906 149.308594 L 328.832031 140.109375 C 326.617188 133.589844 324.058594 127.1875 320.914062 121.132812 Z M 187.496094 259.445312 C 147.796875 259.445312 115.546875 227.195312 115.546875 187.496094 C 115.546875 147.792969 147.796875 115.546875 187.496094 115.546875 C 227.195312 115.546875 259.445312 147.792969 259.445312 187.496094 C 259.445312 227.195312 227.195312 259.445312 187.496094 259.445312 Z M 187.496094 259.445312 "/></g></g></svg>